<svg width="320" height="238" viewBox="0 0 320 238" version="1.1" xmlns="http://www.w3.org/2000/svg" xmlns:xlink="http://www.w3.org/1999/xlink" xml:space="preserve" xmlns:serif="http://www.serif.com/" style="fill-rule:evenodd;clip-rule:evenodd;stroke-linejoin:round;stroke-miterlimit:1.41421;">
    <g>
        <path d="M179.197,207.458c-0.752,0.229 -1.512,0.438 -2.277,0.64c-5.229,1.378 -10.735,2.128 -16.432,2.128c-5.964,0 -11.718,-0.82 -17.163,-2.322c-0.726,-0.201 -1.449,-0.414 -2.163,-0.64c-0.759,-0.24 -1.511,-0.487 -2.256,-0.754c-1.198,-0.427 -2.374,-0.891 -3.535,-1.387c-0.611,-0.262 -1.218,-0.526 -1.819,-0.807c-0.595,-0.276 -1.189,-0.559 -1.772,-0.853c-2.062,-1.038 -4.049,-2.195 -5.96,-3.443c-0.577,-0.376 -1.154,-0.752 -1.716,-1.145c-0.539,-0.38 -1.062,-0.779 -1.588,-1.174c-1.758,-1.324 -3.448,-2.726 -5.038,-4.223c-1.969,-1.849 -3.796,-3.83 -5.48,-5.917c-1.021,-1.269 -1.981,-2.58 -2.89,-3.924c-0.815,-1.207 -1.587,-2.438 -2.306,-3.703c-4.321,-7.605 -6.853,-16.239 -7.1,-25.412c-0.014,-0.492 -0.04,-0.979 -0.04,-1.475c0,-0.084 0.006,-0.166 0.006,-0.249c0.002,-0.565 0.026,-1.124 0.046,-1.682c0.185,-5.197 1.089,-10.217 2.651,-14.97c0.202,-0.614 0.426,-1.217 0.649,-1.821c0.219,-0.591 0.446,-1.181 0.685,-1.765c1.059,-2.593 2.311,-5.093 3.744,-7.488c0.331,-0.554 0.659,-1.108 1.01,-1.651c0.342,-0.528 0.702,-1.044 1.063,-1.559c2.315,-3.336 4.976,-6.443 7.962,-9.248c1.445,-1.358 2.968,-2.646 4.55,-3.862c0.444,-0.34 0.9,-0.67 1.354,-0.999c0.452,-0.328 0.906,-0.648 1.365,-0.962c10.035,-6.866 22.376,-10.925 35.741,-10.925c12.957,0 24.95,3.818 34.815,10.307c0.462,0.304 0.926,0.605 1.378,0.919c0.459,0.322 0.905,0.657 1.355,0.99c1.911,1.411 3.742,2.918 5.46,4.532c2.688,2.527 5.118,5.291 7.266,8.251c0.368,0.505 0.718,1.022 1.069,1.542c0.356,0.526 0.706,1.053 1.043,1.592c1.517,2.41 2.846,4.933 3.979,7.555c0.247,0.569 0.492,1.135 0.719,1.714c0.235,0.595 0.444,1.201 0.657,1.806c1.723,4.897 2.768,10.08 3.015,15.464c0.026,0.559 0.038,1.121 0.046,1.682c0.004,0.277 0.022,0.548 0.022,0.827c0,0.296 -0.02,0.586 -0.024,0.882c-0.141,8.737 -2.357,16.991 -6.217,24.352c-0.66,1.262 -1.371,2.491 -2.123,3.696c-0.844,1.349 -1.744,2.659 -2.7,3.932c-2.022,2.702 -4.273,5.239 -6.752,7.569c-1.668,1.568 -3.441,3.033 -5.293,4.412c-0.531,0.395 -1.063,0.79 -1.61,1.168c-0.561,0.391 -1.135,0.773 -1.714,1.145c-1.988,1.288 -4.067,2.459 -6.216,3.517c-0.588,0.288 -1.173,0.581 -1.772,0.853c-0.609,0.275 -1.232,0.531 -1.855,0.79c-1.137,0.473 -2.285,0.922 -3.456,1.33c-0.786,0.271 -1.582,0.522 -2.383,0.765m99.78,-128.807c6.553,2.925 13.41,7.861 18.568,14.006c5.165,6.151 8.619,13.472 8.615,21.219c0,3.731 -0.794,7.578 -2.606,11.499c-0.187,0.402 -0.402,0.823 -0.607,1.237c-0.257,0.522 -0.525,1.048 -0.81,1.588c-0.273,0.515 -0.547,1.028 -0.846,1.557c-2.671,4.736 -6.338,10.027 -10.767,15.536c-8.776,10.928 -20.529,22.732 -33.402,33.016c-12.751,10.193 -26.614,18.889 -39.702,23.809c-0.119,0.046 -0.239,0.095 -0.36,0.14c-0.762,0.283 -1.509,0.552 -2.247,0.81c-0.936,0.328 -1.846,0.631 -2.741,0.921c-5.538,1.787 -10.323,2.859 -14.44,3.417c-1.127,0.152 -2.205,0.268 -3.233,0.348c-1.27,0.097 -2.466,0.144 -3.591,0.146c-0.031,0.002 -0.067,0.002 -0.099,0.002c-1.294,0 -2.466,-0.073 -3.577,-0.174c0.537,-0.232 1.073,-0.464 1.602,-0.709c0.597,-0.279 1.193,-0.566 1.782,-0.859c0.581,-0.292 1.152,-0.599 1.724,-0.906c2.335,-1.258 4.582,-2.639 6.72,-4.151c0.537,-0.383 1.063,-0.778 1.588,-1.173c0.514,-0.389 1.017,-0.788 1.519,-1.19c6.406,-5.157 11.711,-11.478 15.548,-18.621c13.759,-11.699 25.446,-27.021 34.338,-42.605c0.211,-0.371 0.43,-0.739 0.637,-1.11c0.249,-0.442 0.485,-0.885 0.73,-1.33c0.442,-0.8 0.878,-1.602 1.306,-2.405c8.106,-15.232 13.476,-30.365 15.357,-42.355c0.456,-2.913 0.673,-5.683 0.673,-8.308c0.002,-2.115 -0.145,-4.134 -0.414,-6.067c2.689,0.427 5.675,1.342 8.735,2.712m-36.585,-32.37c6.394,2.951 12.682,7.098 17.346,12.869c3.041,3.769 5.406,8.228 6.692,13.556c0.116,0.484 0.225,0.975 0.323,1.472c0.095,0.487 0.183,0.979 0.26,1.477c0.313,2.002 0.486,4.113 0.488,6.351c0,2.472 -0.203,5.095 -0.639,7.878c-1.951,12.495 -7.954,28.926 -17.063,45.135c-0.062,0.114 -0.129,0.225 -0.191,0.337c-0.464,0.822 -0.936,1.643 -1.415,2.463c-0.49,0.838 -0.992,1.674 -1.497,2.509c-7.162,11.815 -15.931,23.275 -25.9,32.809c2.369,-6.284 3.671,-13.043 3.671,-20.09c0,-0.273 -0.018,-0.539 -0.022,-0.808c-0.008,-0.563 -0.02,-1.123 -0.046,-1.683c-0.024,-0.553 -0.059,-1.104 -0.099,-1.652c-0.434,-5.962 -1.782,-11.682 -3.928,-17.042c-0.229,-0.574 -0.469,-1.145 -0.716,-1.712c-0.243,-0.554 -0.502,-1.1 -0.761,-1.647c-1.331,-2.795 -2.88,-5.473 -4.63,-8.022c2.158,-5.651 4.059,-11.493 5.691,-17.386c4.821,-17.444 7.314,-35.26 7.316,-49.475c-0.002,-4.638 -0.269,-8.892 -0.814,-12.642c4.663,1.054 10.333,2.713 15.934,5.303m-144.977,-9.13c1.415,-4.914 4.284,-9.077 8.151,-12.638c6.73,-6.198 16.5,-10.466 26.234,-13.131c9.728,-2.674 19.42,-3.759 25.881,-3.756c4.306,-0.002 10.347,0.479 17.008,1.595c9.994,1.673 21.406,4.784 30.619,9.753c4.608,2.485 8.659,5.425 11.738,8.843c2.502,2.781 4.353,5.874 5.399,9.331c0.155,0.52 0.292,1.048 0.412,1.583c0.063,0.286 0.135,0.57 0.189,0.862c0.041,0.229 0.077,0.472 0.115,0.706c0.633,3.817 0.956,8.321 0.956,13.321c0.002,13.895 -2.455,31.526 -7.216,48.729c-1.412,5.11 -3.032,10.181 -4.845,15.106c-3.715,-4.747 -8.146,-8.965 -13.154,-12.505c-0.45,-0.318 -0.914,-0.62 -1.373,-0.927c-0.458,-0.307 -0.912,-0.619 -1.378,-0.915c-10.19,-6.444 -22.459,-10.208 -35.663,-10.208c-13.611,0 -26.22,4.009 -36.591,10.818c-0.461,0.305 -0.923,0.609 -1.375,0.921c-0.46,0.32 -0.908,0.651 -1.358,0.982c-4.968,3.644 -9.345,7.961 -12.982,12.807c-1.961,-5.23 -3.699,-10.634 -5.203,-16.079c-4.76,-17.203 -7.216,-34.834 -7.214,-48.729c0,-5 0.322,-9.504 0.953,-13.321c0.04,-0.236 0.076,-0.477 0.118,-0.706c0.051,-0.293 0.133,-0.574 0.197,-0.864c0.115,-0.532 0.233,-1.061 0.382,-1.578m-43.964,35.555c1.316,-5.459 3.766,-10.004 6.915,-13.829c7.174,-8.717 18.111,-13.674 27.301,-16.398c2.029,-0.603 3.961,-1.093 5.755,-1.497c-0.544,3.748 -0.812,8 -0.812,12.638c0.002,14.215 2.492,32.031 7.315,49.475c1.73,6.248 3.762,12.444 6.085,18.41c-1.662,2.532 -3.133,5.185 -4.387,7.947c-0.255,0.562 -0.488,1.134 -0.725,1.703c-0.24,0.576 -0.477,1.157 -0.7,1.74c-1.977,5.229 -3.207,10.788 -3.567,16.571c-0.036,0.552 -0.054,1.111 -0.072,1.667c-0.02,0.559 -0.044,1.119 -0.046,1.682c0,0.079 -0.006,0.154 -0.006,0.232c0,7.669 1.543,14.997 4.328,21.741c-10.696,-9.847 -20.071,-21.956 -27.649,-34.46c-0.506,-0.835 -1.007,-1.671 -1.497,-2.509c-0.48,-0.82 -0.952,-1.641 -1.415,-2.463c-0.062,-0.112 -0.13,-0.223 -0.194,-0.337c-9.106,-16.209 -15.11,-32.64 -17.063,-45.135c-0.434,-2.783 -0.637,-5.406 -0.637,-7.878c0,-2.238 0.175,-4.347 0.488,-6.351c0.078,-0.498 0.165,-0.99 0.261,-1.477c0.097,-0.496 0.205,-0.988 0.322,-1.472m-35.645,26.465c3.828,-6.851 9.979,-12.781 16.518,-16.956c3.264,-2.088 6.624,-3.738 9.813,-4.855c1.923,-0.678 3.767,-1.133 5.498,-1.408c-0.266,1.93 -0.412,3.943 -0.412,6.054c0,2.625 0.217,5.395 0.673,8.308c1.883,11.99 7.254,27.123 15.359,42.355c0.426,0.803 0.864,1.604 1.306,2.405c0.245,0.445 0.482,0.888 0.731,1.33c0.207,0.371 0.424,0.739 0.637,1.11c9.178,16.087 21.327,31.907 35.669,43.737c0.233,0.193 0.459,0.372 0.69,0.56c3.695,6.368 8.59,12.028 14.382,16.736c0.496,0.403 0.992,0.805 1.501,1.192c0.522,0.401 1.053,0.792 1.589,1.175c2.068,1.481 4.238,2.841 6.493,4.08c0.563,0.31 1.123,0.625 1.698,0.919c0.583,0.297 1.182,0.574 1.777,0.857c0.635,0.301 1.274,0.593 1.923,0.875c-1.351,0.163 -2.838,0.257 -4.479,0.257c-0.031,0 -0.067,0 -0.101,-0.002c-1.125,-0.002 -2.321,-0.049 -3.589,-0.146c-1.027,-0.08 -2.106,-0.196 -3.233,-0.348c-4.118,-0.558 -8.906,-1.63 -14.445,-3.419c-0.896,-0.292 -1.806,-0.593 -2.743,-0.922c-0.735,-0.257 -1.481,-0.524 -2.242,-0.807c-0.119,-0.045 -0.241,-0.097 -0.36,-0.142c-17.497,-6.574 -36.354,-19.899 -52.131,-34.51c-7.946,-7.354 -15.12,-15.029 -20.971,-22.313c-4.429,-5.511 -8.097,-10.801 -10.769,-15.538c-0.298,-0.529 -0.571,-1.042 -0.844,-1.555c-0.284,-0.54 -0.553,-1.066 -0.812,-1.588c-0.203,-0.414 -0.42,-0.835 -0.605,-1.237c-1.811,-3.921 -2.606,-7.768 -2.607,-11.499c0,-5.169 1.53,-10.137 4.086,-14.705m16.749,103.705c-11.303,-7.596 -19.016,-17.336 -23.158,-25.753c-2.54,-5.161 -3.582,-10.43 -3.584,-15.646c-0.009,-10.404 4.197,-20.595 8.938,-28.713c2.662,4.482 6.067,9.312 10.086,14.318c8.936,11.119 20.82,23.052 33.878,33.486c11.667,9.321 24.259,17.439 36.561,22.689c0.806,0.341 1.608,0.674 2.408,0.992c0.661,0.262 1.32,0.522 1.977,0.767c0.187,0.07 0.366,0.133 0.551,0.201c5.335,1.953 10.094,3.312 14.338,4.208c-13.735,4.587 -26.116,6.533 -37.158,6.533c-0.866,0 -1.714,-0.025 -2.564,-0.047c-0.529,-0.015 -1.057,-0.032 -1.582,-0.056c-0.53,-0.023 -1.053,-0.056 -1.579,-0.088c-15.99,-0.998 -28.986,-6.091 -39.112,-12.891m207.841,18.175c-0.729,2.321 -2.086,4.491 -4.63,6.191c-2.546,1.695 -6.372,2.939 -12.133,3.089c-0.863,0.021 -1.709,0.032 -2.534,0.032c-11.615,-0.006 -19.322,-2.118 -25.797,-4.562c-3.237,-1.228 -6.167,-2.545 -9.117,-3.735c-2.946,-1.191 -5.914,-2.25 -9.195,-2.916c-2.02,-0.41 -3.893,-0.586 -5.613,-0.586c-4.785,-0.003 -8.388,1.38 -10.801,2.83c-1.136,0.683 -2.006,1.375 -2.643,1.95c-0.637,-0.575 -1.509,-1.267 -2.646,-1.95c-2.412,-1.45 -6.013,-2.833 -10.801,-2.83c-1.719,0 -3.593,0.176 -5.613,0.586c-3.28,0.666 -6.248,1.725 -9.194,2.916c-4.423,1.787 -8.805,3.854 -14.247,5.477c-5.442,1.624 -11.957,2.818 -20.67,2.82c-0.824,0 -1.666,-0.011 -2.532,-0.032c-3.836,-0.099 -6.824,-0.689 -9.137,-1.568c-3.465,-1.331 -5.444,-3.271 -6.666,-5.453c-0.78,-1.402 -1.222,-2.925 -1.441,-4.429c0.8,0.018 1.596,0.043 2.406,0.043c12.788,0 27.203,-2.513 43.241,-8.477c2.369,0.288 4.549,0.421 6.539,0.421c3.88,0.002 7.051,-0.494 9.639,-1.222c6.77,2.292 14.067,3.546 21.677,3.546c7.415,0 14.527,-1.198 21.15,-3.38c2.48,0.64 5.48,1.058 9.071,1.056c1.99,0 4.17,-0.133 6.539,-0.419c16.038,5.962 30.454,8.475 43.241,8.475c0.804,0 1.592,-0.025 2.385,-0.043c-0.104,0.724 -0.257,1.454 -0.478,2.17m42.929,-18.175c-10.128,6.804 -23.131,11.897 -39.129,12.891c-0.524,0.034 -1.049,0.065 -1.579,0.088c-0.521,0.024 -1.047,0.041 -1.572,0.056c-0.848,0.022 -1.694,0.047 -2.556,0.047c-11.042,0 -23.425,-1.946 -37.158,-6.533c4.242,-0.894 8.999,-2.253 14.33,-4.207c0.187,-0.067 0.37,-0.132 0.56,-0.202c0.648,-0.241 1.301,-0.509 1.95,-0.769c0.806,-0.318 1.611,-0.647 2.419,-0.99c16.894,-7.208 34.349,-19.822 49.177,-33.537c8.052,-7.451 15.319,-15.226 21.275,-22.638c4.019,-5.006 7.423,-9.836 10.086,-14.314c4.742,8.118 8.948,18.305 8.94,28.709c-0.002,5.216 -1.043,10.485 -3.583,15.646c-4.143,8.417 -11.856,18.157 -23.16,25.753m19.563,-73.222c0.563,-1.055 1.095,-2.094 1.561,-3.097c1.98,-4.281 2.868,-8.551 2.866,-12.681c0,-5.725 -1.696,-11.168 -4.447,-16.086c-4.132,-7.38 -10.624,-13.604 -17.537,-18.026c-3.46,-2.212 -7.027,-3.969 -10.484,-5.185c-2.463,-0.863 -4.863,-1.447 -7.144,-1.718c-1.37,-6.248 -4.123,-11.48 -7.694,-15.801c-7.797,-9.435 -19.32,-14.574 -28.843,-17.411c-2.614,-0.774 -5.07,-1.371 -7.276,-1.837c-1.447,-6.158 -5.169,-11.291 -10.124,-15.464c-7.958,-6.696 -19.093,-11.065 -29.92,-13.823c-10.835,-2.748 -21.351,-3.863 -28.165,-3.867c-9.083,0.008 -23.663,1.98 -36.747,7.207c-6.54,2.616 -12.702,6.051 -17.573,10.528c-4.549,4.173 -7.935,9.3 -9.344,15.411c-4.893,1.031 -11.068,2.734 -17.28,5.524c-6.808,3.062 -13.673,7.443 -18.865,13.732c-3.573,4.321 -6.326,9.556 -7.693,15.807c-3.352,0.394 -6.965,1.47 -10.632,3.104c-7.009,3.138 -14.193,8.312 -19.687,14.849c-5.486,6.53 -9.292,14.461 -9.296,23.056c0,4.13 0.886,8.4 2.869,12.681c0.464,1.003 0.997,2.042 1.56,3.097c-5.279,8.623 -10.325,19.905 -10.335,31.823c-0.002,5.586 1.125,11.31 3.876,16.892c4.377,8.883 12.397,18.99 24.187,26.919c10.62,7.142 24.333,12.475 41.076,13.458c0.117,1.025 0.314,2.079 0.643,3.134c0.868,2.82 2.649,5.668 5.834,7.783c3.183,2.116 7.676,3.475 13.87,3.634c0.892,0.021 1.766,0.032 2.618,0.032c12.023,0.007 20.274,-2.235 26.978,-4.779c3.352,-1.269 6.316,-2.603 9.183,-3.758c2.866,-1.158 5.631,-2.139 8.615,-2.741c1.813,-0.367 3.457,-0.521 4.948,-0.521c4.139,0.002 7.103,1.17 9.103,2.366c1.844,1.104 2.831,2.232 3.028,2.47c0.016,0.018 0.038,0.045 0.044,0.05l0.004,-0.003c0.004,0.005 0.008,0.009 0.012,0.013l-0.008,0.005l0.01,0.011c0.02,0.025 0.049,0.036 0.071,0.058c0.106,0.116 0.225,0.218 0.365,0.3c0.023,0.015 0.047,0.024 0.071,0.035c0.092,0.049 0.177,0.107 0.279,0.137c0.08,0.021 0.161,0.019 0.241,0.028c0.085,0.013 0.171,0.036 0.255,0.034c0.035,0 0.071,-0.015 0.107,-0.017c0.125,-0.009 0.249,-0.021 0.372,-0.058c0.072,-0.023 0.128,-0.067 0.193,-0.101c0.038,-0.017 0.074,-0.034 0.11,-0.054c0.179,-0.105 0.334,-0.232 0.456,-0.391l0.006,0.003c0.006,-0.007 0.03,-0.037 0.053,-0.063c0.225,-0.27 1.213,-1.378 3.016,-2.457c2.001,-1.196 4.965,-2.364 9.103,-2.366c1.491,0 3.135,0.154 4.949,0.521c2.983,0.602 5.748,1.583 8.615,2.741c4.297,1.731 8.822,3.872 14.535,5.578c5.715,1.707 12.606,2.961 21.623,2.959c0.854,0 1.726,-0.011 2.62,-0.032c4.132,-0.107 7.498,-0.745 10.236,-1.785c4.106,-1.557 6.759,-4.072 8.278,-6.83c1.081,-1.952 1.613,-3.996 1.836,-5.936c16.75,-0.979 30.465,-6.314 41.091,-13.458c11.79,-7.929 19.81,-18.036 24.189,-26.919c2.749,-5.582 3.874,-11.306 3.872,-16.892c-0.008,-11.918 -5.056,-23.2 -10.333,-31.823" style="fill:#231f20;fill-rule:nonzero;stroke:#262626;stroke-width:9.32px;"/>
        <path d="M198.15,170.691c1.143,-3.628 1.779,-7.462 1.779,-11.439c0,-22.234 -19.173,-40.258 -42.825,-40.258c-7.773,0 -15.044,1.978 -21.329,5.381c4.22,-1.178 8.661,-1.822 13.256,-1.822c26.827,0 48.619,21.471 49.119,48.138" style="fill:#231f20;fill-rule:nonzero;stroke:#262626;stroke-width:9.32px;"/>
    </g>
</svg>
