<svg width="26" height="33" viewBox="0 0 26 33" version="1.1" xmlns="http://www.w3.org/2000/svg" xmlns:xlink="http://www.w3.org/1999/xlink" xml:space="preserve" xmlns:serif="http://www.serif.com/" style="fill-rule:evenodd;clip-rule:evenodd;stroke-linejoin:round;stroke-miterlimit:1.41421;">
    <g>
        <clipPath id="_clip1">
            <rect x="0" y="-0.042" width="25.975" height="32.995"/>
        </clipPath>
        <g clip-path="url(#_clip1)">
            <path d="M13.001,0c-7.16,0 -13.001,5.841 -13.001,13.03c0,0.871 0.084,1.74 0.252,2.583c0,0.056 0.029,0.113 0.029,0.196c1.432,6.431 11.514,16.09 11.934,16.484c0.225,0.225 0.505,0.308 0.786,0.308c0.281,0 0.562,-0.112 0.787,-0.308c0.421,-0.421 10.445,-10.053 11.878,-16.343c0,-0.056 0.027,-0.112 0.027,-0.168c0.198,-0.9 0.282,-1.825 0.282,-2.752c0.027,-7.189 -5.813,-13.03 -12.974,-13.03Zm10.447,15.361l0,0.083c-1.067,4.662 -8.06,12.018 -10.447,14.405c-2.387,-2.387 -9.407,-9.743 -10.474,-14.517c0,-0.056 0,-0.084 -0.027,-0.14c-0.142,-0.731 -0.225,-1.46 -0.225,-2.191c0,-5.897 4.801,-10.726 10.699,-10.726c5.897,0 10.726,4.801 10.726,10.726c0,0.814 -0.084,1.602 -0.252,2.36Z" style="fill:#8c8c8c;fill-rule:nonzero;"/>
            <path d="M13.001,7.329c-2.415,0 -4.352,1.966 -4.352,4.353c0,2.386 1.965,4.352 4.352,4.352c2.387,0 4.353,-1.938 4.353,-4.352c0,-2.416 -1.937,-4.353 -4.353,-4.353Zm0,6.43c-1.15,0 -2.077,-0.926 -2.077,-2.077c0,-1.152 0.927,-2.079 2.077,-2.079c1.152,0 2.079,0.927 2.079,2.079c0,1.151 -0.927,2.077 -2.079,2.077Z" style="fill:#8c8c8c;fill-rule:nonzero;"/>
        </g>
    </g>
</svg>
