<svg width="60" height="65" viewBox="0 0 60 65" version="1.1" xmlns="http://www.w3.org/2000/svg" xmlns:xlink="http://www.w3.org/1999/xlink" xml:space="preserve" xmlns:serif="http://www.serif.com/" style="fill-rule:evenodd;clip-rule:evenodd;stroke-linejoin:round;stroke-miterlimit:1.41421;">
    <path d="M44.801,61.482l-3.107,0c1.841,-1.793 2.986,-4.296 2.986,-7.062l0,-2.184c0,-0.103 -0.01,-0.204 -0.03,-0.301c0.234,-1.119 0.536,-2.212 0.897,-3.278l1.086,0l-1.832,12.825Zm-38.114,-12.825l6.649,0l1.001,8.287c0.093,0.765 0.743,1.326 1.494,1.326c0.06,0 0.121,-0.004 0.182,-0.011c0.826,-0.1 1.415,-0.85 1.315,-1.676l-0.957,-7.926l8.783,0l0,2.824c-0.129,0.223 -0.204,0.48 -0.204,0.755l0,2.184c0,2.766 1.146,5.269 2.986,7.062l-19.416,0l-1.833,-12.825Zm14.136,-24.112l29.254,0l-1.669,11.683l-6.923,0l0.352,-2.917c0.1,-0.826 -0.489,-1.576 -1.314,-1.676c-0.826,-0.101 -1.577,0.489 -1.676,1.315l-0.396,3.278l-10.285,0l0,-3.59c0,-0.832 -0.674,-1.506 -1.506,-1.506c-0.832,0 -1.506,0.674 -1.506,1.506l0,3.59l-10.285,0l-0.396,-3.278c-0.1,-0.826 -0.85,-1.415 -1.676,-1.315c-0.826,0.1 -1.414,0.85 -1.315,1.676l0.353,2.917l-6.923,0l-1.669,-11.683l17.58,0Zm1.804,-8.112c-2.056,-1.362 -3.283,-3.644 -3.283,-6.105c0,-4.034 3.282,-7.316 7.316,-7.316c4.034,0 7.316,3.282 7.316,7.316c0,2.461 -1.227,4.743 -3.282,6.104c-0.503,0.333 -0.758,0.933 -0.651,1.526l0.65,3.574l-8.066,0l0.65,-3.574c0.108,-0.593 -0.148,-1.193 -0.65,-1.525Zm-17.676,29.211l-0.273,0l-0.971,-6.404l43.411,0c-1.464,1.971 -2.691,4.118 -3.651,6.404l-38.516,0Zm36.882,5.086l-2.128,0l0.27,-2.073l2.408,0c-0.207,0.681 -0.39,1.373 -0.55,2.073Zm-4.896,-2.073l-0.27,2.073l-8.501,0l0,-2.073l8.771,0Zm4.731,5.763c0,3.779 -3.074,6.853 -6.853,6.853c-3.778,0 -6.853,-3.074 -6.853,-6.853l0,-0.678l13.706,0l0,0.678Zm6.975,-8.776l-0.274,0l-1.601,0c0.714,-1.502 1.557,-2.933 2.522,-4.274l-0.647,4.274Zm11.191,-14.795c-0.38,-0.74 -1.288,-1.032 -2.028,-0.653c-2.209,1.133 -4.242,2.51 -6.077,4.089l1.576,-11.034c0.062,-0.432 -0.067,-0.87 -0.353,-1.199c-0.286,-0.33 -0.701,-0.52 -1.138,-0.52l-18.059,0l-0.58,-3.189c2.405,-1.953 3.814,-4.881 3.814,-8.015c0,-5.695 -4.634,-10.328 -10.329,-10.328c-5.695,0 -10.328,4.633 -10.328,10.328c0,3.134 1.409,6.062 3.813,8.015l-0.579,3.189l-18.06,0c-0.436,0 -0.852,0.19 -1.138,0.52c-0.286,0.329 -0.415,0.767 -0.353,1.199l1.855,12.982c-0.407,0.023 -0.789,0.208 -1.056,0.519c-0.287,0.333 -0.413,0.774 -0.348,1.208l1.427,9.416c0.112,0.737 0.745,1.281 1.489,1.281l0.262,0l2.078,14.544c0.106,0.742 0.742,1.293 1.491,1.293l38.894,0c0.749,0 1.385,-0.551 1.491,-1.293l2.077,-14.544l0.263,0c0.744,0 1.377,-0.544 1.489,-1.281l1.426,-9.416c0.032,-0.206 0.018,-0.413 -0.033,-0.609c1.875,-1.758 4.009,-3.268 6.361,-4.474c0.74,-0.38 1.032,-1.288 0.653,-2.028Z" style="fill:#fff;fill-rule:nonzero;"/>
    <path d="M24.263,10.684c0,-1.335 1.086,-2.421 2.42,-2.421c1.335,0 2.421,1.086 2.421,2.421c0,1.334 -1.086,2.42 -2.421,2.42c-1.334,0 -2.42,-1.086 -2.42,-2.42Zm8.104,0c0,-3.134 -2.55,-5.684 -5.683,-5.684c-3.134,0 -5.684,2.55 -5.684,5.684c0,3.133 2.55,5.683 5.684,5.683c3.133,0 5.683,-2.55 5.683,-5.683Z" style="fill:#fff;fill-rule:nonzero;"/>
</svg>
