<svg width="65" height="66" viewBox="0 0 65 66" version="1.1" xmlns="http://www.w3.org/2000/svg" xmlns:xlink="http://www.w3.org/1999/xlink" xml:space="preserve" xmlns:serif="http://www.serif.com/" style="fill-rule:evenodd;clip-rule:evenodd;stroke-linejoin:round;stroke-miterlimit:1.41421;">
    <path d="M10.168,51.866c-0.196,0.496 -0.672,0.798 -1.175,0.798c-0.155,0 -0.312,-0.029 -0.465,-0.09c-4.836,-1.917 -7.771,-4.379 -8.487,-7.119c-0.176,-0.675 0.228,-1.366 0.903,-1.543c0.675,-0.176 1.366,0.228 1.542,0.903c0.497,1.903 2.974,3.824 6.974,5.41c0.648,0.258 0.965,0.992 0.708,1.641Zm4.295,-13.229c0.237,0.203 0.529,0.302 0.819,0.302c0.357,0 0.713,-0.151 0.963,-0.444c0.452,-0.532 0.388,-1.329 -0.143,-1.782c-0.627,-0.534 -1.24,-1.1 -1.823,-1.682c-5.552,-5.553 -8.461,-12.613 -7.58,-18.24c2.37,-0.371 4.992,-0.07 7.65,0.816c0.112,0.059 0.234,0.102 0.362,0.125c3.538,1.25 7.119,3.531 10.228,6.64c0.782,0.782 1.527,1.612 2.215,2.465c0.438,0.544 1.233,0.629 1.777,0.192c0.543,-0.438 0.629,-1.234 0.192,-1.777c-0.744,-0.924 -1.55,-1.821 -2.398,-2.668c-3.193,-3.194 -6.876,-5.586 -10.581,-7c-0.091,-2.285 0.298,-4.372 1.117,-6.016c2.087,0.454 4.245,1.723 6.187,3.646c-0.271,1.079 -0.487,2.194 -0.644,3.339c-0.094,0.691 0.389,1.328 1.08,1.423c0.692,0.095 1.329,-0.389 1.424,-1.08c0.849,-6.192 3.539,-11.391 7.257,-14.105c3.718,2.714 6.407,7.911 7.256,14.102c0.096,0.691 0.733,1.175 1.425,1.08c0.691,-0.095 1.174,-0.733 1.079,-1.424c-0.156,-1.143 -0.372,-2.257 -0.643,-3.335c1.942,-1.923 4.102,-3.192 6.187,-3.645c0.82,1.644 1.208,3.73 1.117,6.015c-3.704,1.414 -7.388,3.807 -10.582,7c-0.846,0.847 -1.652,1.745 -2.396,2.668c-0.437,0.543 -0.352,1.339 0.192,1.777c0.544,0.438 1.34,0.352 1.777,-0.192c0.686,-0.853 1.432,-1.682 2.214,-2.465c3.109,-3.109 6.69,-5.389 10.226,-6.64c0.13,-0.023 0.252,-0.066 0.366,-0.125c2.656,-0.886 5.279,-1.187 7.648,-0.816c0.881,5.627 -2.027,12.687 -7.58,18.24c-0.583,0.582 -1.196,1.148 -1.823,1.681c-0.531,0.453 -0.595,1.25 -0.143,1.782c0.452,0.531 1.25,0.595 1.781,0.143c0.678,-0.577 1.341,-1.189 1.972,-1.82c6.418,-6.418 9.599,-14.813 8.104,-21.386c-0.108,-0.474 -0.478,-0.844 -0.952,-0.952c-2.555,-0.581 -5.384,-0.456 -8.265,0.291c-0.028,-2.783 -0.69,-5.316 -1.919,-7.267c-0.26,-0.411 -0.732,-0.636 -1.215,-0.582c-2.538,0.294 -5.163,1.558 -7.523,3.604c-1.632,-4.561 -4.306,-8.24 -7.63,-10.331c-0.411,-0.259 -0.935,-0.259 -1.346,0c-3.323,2.091 -5.997,5.77 -7.629,10.331c-2.36,-2.046 -4.983,-3.31 -7.523,-3.604c-0.483,-0.054 -0.955,0.171 -1.214,0.582c-1.231,1.951 -1.893,4.484 -1.92,7.268c-2.882,-0.748 -5.712,-0.873 -8.266,-0.292c-0.474,0.108 -0.844,0.479 -0.951,0.953c-1.496,6.572 1.686,14.967 8.104,21.386c0.629,0.629 1.292,1.242 1.97,1.819Zm-0.599,9.882c0.23,-0.659 -0.117,-1.379 -0.776,-1.61c-3.812,-1.332 -6.089,-3.018 -6.089,-4.506c0,-0.963 0.992,-2.049 2.793,-3.061c0.609,-0.343 0.825,-1.113 0.482,-1.721c-0.342,-0.609 -1.112,-0.825 -1.721,-0.483c-2.708,1.522 -4.081,3.293 -4.081,5.264c0,2.73 2.691,5.113 7.783,6.893c0.138,0.049 0.278,0.071 0.416,0.071c0.522,0.001 1.011,-0.325 1.193,-0.847Zm37.924,-1.522c-0.661,0.225 -1.015,0.942 -0.791,1.603c0.179,0.526 0.67,0.858 1.196,0.858c0.135,0 0.273,-0.022 0.407,-0.068c5.272,-1.79 8.058,-4.207 8.058,-6.988c0,-1.9 -1.279,-3.617 -3.801,-5.103c-0.602,-0.355 -1.376,-0.154 -1.731,0.447c-0.354,0.601 -0.154,1.376 0.448,1.73c1.649,0.972 2.557,2.011 2.557,2.926c0,1.506 -2.431,3.266 -6.343,4.595Zm-6.691,9.236c0,1.281 -1.041,2.322 -2.321,2.322c-0.697,0 -1.263,0.566 -1.263,1.264c0,0.697 0.566,1.264 1.263,1.264c2.674,0 4.849,-2.176 4.849,-4.85c0,-0.698 -0.566,-1.264 -1.263,-1.264c-0.698,0 -1.265,0.566 -1.265,1.264Zm18.959,-12.321c-0.675,-0.176 -1.366,0.228 -1.543,0.903c-0.497,1.903 -2.973,3.824 -6.973,5.41c-0.649,0.258 -0.966,0.992 -0.709,1.641c0.197,0.496 0.673,0.798 1.176,0.798c0.155,0 0.312,-0.029 0.465,-0.09c4.836,-1.917 7.77,-4.379 8.487,-7.119c0.176,-0.676 -0.228,-1.366 -0.903,-1.543Zm-22.456,0.549c0,0.688 -0.559,1.248 -1.247,1.248c-0.698,0 -1.264,0.566 -1.264,1.264c0,0.698 0.566,1.263 1.264,1.263c2.081,0 3.775,-1.694 3.775,-3.775c0,-0.698 -0.566,-1.264 -1.264,-1.264c-0.698,0 -1.264,0.566 -1.264,1.264Zm-3.611,-8.07l0.33,0c0.698,0 1.264,-0.567 1.264,-1.264c0,-0.698 -0.566,-1.264 -1.264,-1.264l-0.33,0c-0.698,0 -1.263,0.566 -1.263,1.264c0,0.697 0.565,1.264 1.263,1.264Zm13.053,14.488c1.158,1.607 1.771,3.5 1.771,5.476c0,5.183 -4.217,9.4 -9.4,9.4l-21.695,0c-5.183,0 -9.4,-4.217 -9.4,-9.4c0,-3.439 1.904,-6.585 4.862,-8.225c-0.413,-0.936 -0.643,-1.97 -0.643,-3.058c0,-3.305 2.124,-6.124 5.079,-7.164c-0.653,-0.945 -1.036,-2.09 -1.036,-3.323c0,-3.231 2.629,-5.859 5.859,-5.859l12.253,0c3.23,0 5.859,2.628 5.859,5.859c0,3.23 -2.629,5.859 -5.859,5.859l-12.253,0c-0.787,0 -1.538,-0.156 -2.224,-0.438c-0.029,0.001 -0.058,0.003 -0.087,0.003c-2.792,0 -5.064,2.271 -5.064,5.064c0,1.044 0.318,2.017 0.862,2.824c0.043,0.051 0.082,0.107 0.117,0.166c0.923,1.257 2.41,2.074 4.085,2.074l16.875,0c2.792,0 5.063,-2.272 5.063,-5.064c0,-1.504 -0.67,-2.924 -1.838,-3.895c-0.537,-0.446 -0.611,-1.242 -0.164,-1.78c0.446,-0.537 1.243,-0.609 1.779,-0.164c1.748,1.453 2.751,3.581 2.751,5.839c0,4.186 -3.405,7.591 -7.591,7.591l-16.875,0c-2.188,0 -4.163,-0.93 -5.549,-2.416c-2.264,1.17 -3.733,3.527 -3.733,6.107c0,3.79 3.082,6.873 6.872,6.873l21.695,0c3.789,0 6.872,-3.083 6.872,-6.872c0,-1.442 -0.447,-2.825 -1.293,-3.998c-0.408,-0.566 -0.279,-1.356 0.287,-1.765c0.566,-0.408 1.355,-0.28 1.763,0.286Zm-27.935,-16.295c0,1.838 1.495,3.332 3.332,3.332l12.253,0c1.837,0 3.331,-1.494 3.331,-3.331c0,-1.837 -1.494,-3.332 -3.331,-3.332l-12.253,0c-1.837,0.001 -3.332,1.495 -3.332,3.331Z" style="fill:#f2f2f2;fill-rule:nonzero;"/>
</svg>
