<svg width="60" height="62" viewBox="0 0 60 62" version="1.1" xmlns="http://www.w3.org/2000/svg" xmlns:xlink="http://www.w3.org/1999/xlink" xml:space="preserve" xmlns:serif="http://www.serif.com/" style="fill-rule:evenodd;clip-rule:evenodd;stroke-linejoin:round;stroke-miterlimit:1.41421;">
    <path d="M24.898,12.822c-2.846,0.906 -4.758,3.523 -4.758,6.511c0,2.989 1.912,5.606 4.758,6.512c0.139,0.044 0.283,0.066 0.426,0.066c0.143,0 0.287,-0.022 0.426,-0.066c2.845,-0.906 4.757,-3.523 4.757,-6.512c0,-2.988 -1.912,-5.605 -4.757,-6.511c-0.277,-0.088 -0.575,-0.088 -0.852,0Zm2.804,6.511c0,1.609 -0.939,3.034 -2.378,3.677c-1.439,-0.643 -2.379,-2.068 -2.379,-3.677c0,-1.608 0.94,-3.034 2.379,-3.677c1.439,0.643 2.378,2.069 2.378,3.677Zm-7.396,18.936c-2.254,1.914 -5.096,2.932 -7.989,2.932c-1.031,0 -2.068,-0.129 -3.087,-0.394c-3.186,-0.826 -5.858,-2.843 -7.526,-5.68c-1.667,-2.836 -2.13,-6.153 -1.304,-9.338c0.955,-3.681 3.576,-6.703 7.016,-8.204c-1.077,-2.499 -1.294,-5.265 -0.598,-7.946c0.827,-3.186 2.844,-5.858 5.68,-7.526c2.837,-1.667 6.153,-2.131 9.339,-1.304c1.688,0.438 3.259,1.227 4.609,2.308c1.152,-0.968 2.482,-1.725 3.905,-2.219c0.732,-0.254 1.531,0.133 1.785,0.865c0.254,0.731 -0.133,1.53 -0.865,1.784c-1.433,0.498 -2.743,1.341 -3.788,2.438c-0.261,0.274 -0.621,0.432 -1,0.435c-0.005,0 -0.011,0 -0.016,0c-0.373,0 -0.73,-0.147 -0.993,-0.411c-1.194,-1.198 -2.696,-2.058 -4.342,-2.484c-2.46,-0.64 -5.021,-0.281 -7.212,1.006c-2.191,1.288 -3.748,3.352 -4.387,5.812c-0.648,2.496 -0.271,5.089 1.06,7.3c0.226,0.374 0.264,0.834 0.103,1.241c-0.162,0.407 -0.505,0.715 -0.926,0.833c-3.257,0.911 -5.806,3.508 -6.655,6.777c-0.638,2.459 -0.281,5.02 1.007,7.211c1.289,2.192 3.353,3.749 5.813,4.387c2.995,0.778 6.193,0.045 8.556,-1.961c0.59,-0.502 1.475,-0.429 1.976,0.161c0.502,0.591 0.43,1.475 -0.161,1.977Zm12.901,20.168l-0.993,0l0,-8.256c0,-0.775 -0.628,-1.403 -1.403,-1.403l-9.564,0c-0.774,0 -1.402,0.628 -1.402,1.403l0,8.256l-0.995,0c-0.774,0 -1.402,0.627 -1.402,1.402c0,0.775 0.628,1.402 1.402,1.402l2.362,0c0.024,0.001 0.048,0.001 0.072,0l9.491,0c0.012,0.001 0.024,0.001 0.036,0.001c0.012,0 0.024,0 0.036,-0.001l2.36,0c0.775,0 1.403,-0.627 1.403,-1.402c0,-0.775 -0.628,-1.402 -1.403,-1.402Zm-3.798,0l-6.759,0l0,-6.854l6.759,0l0,6.854Zm14.113,1.402c0,0.775 -0.628,1.402 -1.402,1.402l-3.122,0c-0.726,0 -1.332,-0.554 -1.397,-1.276c-0.225,-2.51 -1.263,-11.365 -1.732,-12.749c-0.633,-1.866 -2.289,-2.097 -5.915,-2.178c-3.011,-0.068 -4.765,-1.327 -5.52,-3.964c-0.633,-2.21 -0.584,-5.362 -0.509,-10.132c0.011,-0.704 0.023,-1.441 0.033,-2.213c0.007,-0.611 0.411,-1.147 0.995,-1.324c0.586,-0.178 1.218,0.045 1.564,0.549c4.779,6.971 8.691,9.698 11.13,10.758c0.711,0.308 1.037,1.134 0.728,1.845c-0.309,0.71 -1.135,1.036 -1.845,0.727c-3.175,-1.378 -6.528,-4.239 -9.825,-8.359c-0.073,8.235 0.419,9.244 3.312,9.308c3.198,0.072 7.178,0.162 8.508,4.081c0.558,1.647 1.41,9.056 1.738,12.123l1.857,0c0.774,0 1.402,0.627 1.402,1.402Zm15.252,-25.18c-1.428,2.965 -3.925,5.196 -7.031,6.283c-1.646,0.576 -3.39,0.796 -5.113,0.649c-0.419,1.446 -1.102,2.815 -2.008,4.018c-0.277,0.366 -0.696,0.558 -1.121,0.558c-0.295,0 -0.591,-0.092 -0.844,-0.282c-0.618,-0.467 -0.741,-1.346 -0.275,-1.965c0.913,-1.21 1.532,-2.639 1.789,-4.134c0.064,-0.373 0.276,-0.704 0.588,-0.918c0.312,-0.214 0.697,-0.293 1.068,-0.219c1.659,0.33 3.384,0.207 4.989,-0.354c2.399,-0.84 4.328,-2.563 5.431,-4.852c1.102,-2.29 1.247,-4.873 0.408,-7.271c-0.852,-2.434 -2.608,-4.378 -4.946,-5.473c-0.396,-0.186 -0.683,-0.547 -0.775,-0.974c-0.093,-0.428 0.02,-0.874 0.304,-1.208c2.198,-2.57 2.87,-6.146 1.755,-9.334c-0.839,-2.399 -2.563,-4.327 -4.852,-5.429c-2.29,-1.103 -4.872,-1.248 -7.271,-0.408c-2.921,1.022 -5.169,3.412 -6.015,6.394c-0.21,0.745 -0.986,1.178 -1.731,0.966c-0.745,-0.211 -1.178,-0.987 -0.968,-1.732c1.095,-3.858 4.006,-6.952 7.788,-8.276c3.106,-1.087 6.449,-0.9 9.413,0.529c2.965,1.427 5.197,3.924 6.283,7.03c1.257,3.589 0.762,7.559 -1.259,10.721c2.286,1.476 4.006,3.654 4.921,6.267c1.087,3.106 0.899,6.45 -0.528,9.414Zm-19.978,-11.757c0.84,1.691 1.708,3.441 1.941,5.102c0.307,2.189 -0.561,3.918 -2.512,4.999c-0.216,0.12 -0.449,0.177 -0.679,0.177c-0.493,0 -0.972,-0.261 -1.228,-0.723c-0.375,-0.678 -0.131,-1.531 0.547,-1.907c1.742,-0.965 1.383,-2.445 -0.581,-6.401c-0.842,-1.695 -1.712,-3.449 -1.945,-5.116c-0.305,-2.195 0.567,-3.928 2.526,-5.014c0.676,-0.375 1.531,-0.131 1.906,0.547c0.376,0.677 0.131,1.531 -0.547,1.907c-1.757,0.974 -1.398,2.459 0.572,6.429Z" style="fill:#f2f2f2;fill-rule:nonzero;"/>
</svg>
