<svg width="23" height="30" viewBox="0 0 23 30" version="1.1" xmlns="http://www.w3.org/2000/svg" xmlns:xlink="http://www.w3.org/1999/xlink" xml:space="preserve" xmlns:serif="http://www.serif.com/" style="fill-rule:evenodd;clip-rule:evenodd;stroke-linejoin:round;stroke-miterlimit:1.41421;">
    <path d="M11.363,0.001l0.144,0.003l0.144,0.004l0.144,0.007l0.143,0.008l0.143,0.01l0.142,0.011l0.141,0.014l0.141,0.015l0.141,0.017l0.14,0.019l0.139,0.02l0.139,0.023l0.139,0.023l0.137,0.026l0.138,0.027l0.136,0.029l0.136,0.03l0.135,0.033l0.135,0.033l0.134,0.036l0.133,0.037l0.133,0.038l0.132,0.041l0.132,0.041l0.13,0.044l0.13,0.045l0.129,0.046l0.129,0.048l0.128,0.05l0.126,0.051l0.127,0.052l0.125,0.054l0.125,0.056l0.124,0.057l0.123,0.058l0.122,0.06l0.121,0.061l0.121,0.063l0.119,0.064l0.119,0.065l0.118,0.067l0.117,0.068l0.116,0.07l0.115,0.071l0.114,0.072l0.114,0.074l0.112,0.075l0.112,0.076l0.11,0.078l0.11,0.079l0.108,0.08l0.107,0.081l0.107,0.083l0.105,0.084l0.105,0.085l0.103,0.086l0.103,0.088l0.101,0.089l0.1,0.09l0.099,0.091l0.098,0.092l0.097,0.094l0.096,0.094l0.094,0.096l0.094,0.097l0.092,0.098l0.091,0.099l0.09,0.1l0.089,0.101l0.088,0.103l0.086,0.103l0.085,0.104l0.084,0.106l0.083,0.106l0.081,0.108l0.08,0.108l0.079,0.11l0.078,0.11l0.076,0.112l0.075,0.112l0.074,0.113l0.072,0.115l0.071,0.115l0.069,0.116l0.069,0.117l0.067,0.118l0.065,0.119l0.064,0.119l0.063,0.121l0.061,0.121l0.06,0.122l0.058,0.123l0.057,0.124l0.056,0.125l0.054,0.125l0.052,0.126l0.051,0.127l0.05,0.128l0.048,0.128l0.046,0.13l0.045,0.13l0.043,0.13l0.042,0.132l0.04,0.132l0.039,0.132l0.037,0.134l0.035,0.134l0.034,0.134l0.032,0.136l0.031,0.136l0.029,0.136l0.027,0.137l0.025,0.138l0.024,0.139l0.022,0.138l0.021,0.14l0.019,0.14l0.017,0.141l0.015,0.141l0.013,0.141l0.012,0.142l0.01,0.143l0.008,0.143l0.007,0.144l0.004,0.144l0.003,0.144l0.001,0.145l-0.001,0.073l-0.001,0.073l-0.003,0.074l-0.003,0.075l-0.005,0.075l-0.005,0.076l-0.007,0.076l-0.007,0.077l-0.009,0.077l-0.009,0.078l-0.011,0.078l-0.011,0.079l-0.012,0.079l-0.013,0.08l-0.014,0.08l-0.015,0.081l-0.016,0.081l-0.017,0.082l-0.017,0.082l-0.019,0.083l-0.039,0.167l-0.043,0.168l-0.047,0.17l-0.049,0.172l-0.053,0.174l-0.056,0.175l-0.059,0.176l-0.062,0.178l-0.065,0.179l-0.068,0.18l-0.071,0.182l-0.073,0.183l-0.077,0.184l-0.078,0.185l-0.082,0.187l-0.084,0.187l-0.086,0.188l-0.089,0.189l-0.091,0.19l-0.093,0.19l-0.095,0.192l-0.098,0.192l-0.1,0.192l-0.101,0.193l-0.104,0.194l-0.105,0.194l-0.107,0.194l-0.109,0.195l-0.111,0.195l-0.112,0.196l-0.114,0.195l-0.115,0.196l-0.117,0.195l-0.118,0.196l-0.119,0.196l-0.12,0.195l-0.122,0.195l-0.123,0.195l-0.123,0.195l-0.125,0.195l-0.126,0.194l-0.126,0.194l-0.127,0.193l-0.128,0.193l-0.129,0.192l-0.129,0.191l-0.13,0.191l-0.13,0.19l-0.13,0.19l-0.131,0.188l-0.262,0.374l-0.263,0.37l-0.263,0.365l-0.262,0.36l-0.262,0.355l-0.259,0.349l-0.258,0.343l-0.255,0.336l-0.252,0.329l-0.249,0.322l-0.244,0.313l-0.24,0.305l-0.234,0.296l-0.229,0.287l-0.223,0.277l-0.216,0.267l-0.209,0.256l-0.201,0.245l-0.193,0.234l-0.185,0.221l-0.175,0.21l-0.165,0.196l-0.299,0.353l-0.254,0.297l-0.205,0.237l-0.151,0.173l-0.126,0.143l-0.126,-0.143l-0.151,-0.173l-0.205,-0.237l-0.254,-0.297l-0.299,-0.353l-0.166,-0.196l-0.175,-0.21l-0.184,-0.221l-0.193,-0.234l-0.201,-0.245l-0.209,-0.256l-0.216,-0.267l-0.223,-0.277l-0.229,-0.287l-0.234,-0.296l-0.24,-0.305l-0.245,-0.313l-0.248,-0.322l-0.252,-0.329l-0.255,-0.336l-0.258,-0.343l-0.26,-0.349l-0.261,-0.355l-0.262,-0.36l-0.263,-0.365l-0.263,-0.37l-0.262,-0.374l-0.131,-0.188l-0.13,-0.19l-0.131,-0.19l-0.129,-0.191l-0.129,-0.191l-0.129,-0.192l-0.128,-0.193l-0.127,-0.193l-0.127,-0.194l-0.125,-0.194l-0.125,-0.195l-0.124,-0.195l-0.122,-0.195l-0.122,-0.195l-0.12,-0.195l-0.12,-0.196l-0.118,-0.196l-0.116,-0.195l-0.115,-0.196l-0.114,-0.195l-0.112,-0.196l-0.111,-0.195l-0.109,-0.195l-0.107,-0.194l-0.105,-0.194l-0.104,-0.194l-0.102,-0.193l-0.099,-0.192l-0.098,-0.192l-0.095,-0.192l-0.093,-0.19l-0.091,-0.19l-0.089,-0.189l-0.086,-0.188l-0.084,-0.187l-0.082,-0.187l-0.079,-0.185l-0.076,-0.184l-0.073,-0.183l-0.071,-0.182l-0.068,-0.18l-0.065,-0.179l-0.062,-0.178l-0.059,-0.176l-0.056,-0.175l-0.053,-0.174l-0.049,-0.172l-0.047,-0.17l-0.043,-0.168l-0.039,-0.167l-0.019,-0.083l-0.017,-0.082l-0.017,-0.082l-0.016,-0.081l-0.015,-0.081l-0.014,-0.08l-0.013,-0.08l-0.012,-0.079l-0.012,-0.079l-0.01,-0.078l-0.009,-0.078l-0.009,-0.077l-0.007,-0.077l-0.007,-0.076l-0.005,-0.076l-0.005,-0.075l-0.003,-0.075l-0.003,-0.074l-0.001,-0.073l-0.001,-0.073l0.001,-0.145l0.003,-0.144l0.004,-0.144l0.007,-0.144l0.008,-0.143l0.01,-0.143l0.011,-0.142l0.014,-0.141l0.015,-0.141l0.017,-0.141l0.019,-0.14l0.02,-0.14l0.023,-0.138l0.023,-0.139l0.026,-0.138l0.027,-0.137l0.029,-0.136l0.03,-0.136l0.033,-0.136l0.033,-0.134l0.036,-0.134l0.037,-0.134l0.038,-0.132l0.041,-0.132l0.041,-0.132l0.044,-0.13l0.045,-0.13l0.046,-0.13l0.048,-0.128l0.05,-0.128l0.051,-0.127l0.052,-0.126l0.054,-0.125l0.056,-0.125l0.057,-0.124l0.058,-0.123l0.06,-0.122l0.061,-0.121l0.063,-0.121l0.064,-0.119l0.065,-0.119l0.067,-0.118l0.068,-0.117l0.07,-0.116l0.071,-0.115l0.072,-0.115l0.074,-0.113l0.075,-0.112l0.076,-0.112l0.078,-0.11l0.079,-0.11l0.08,-0.108l0.081,-0.108l0.083,-0.106l0.084,-0.106l0.085,-0.104l0.086,-0.103l0.088,-0.103l0.089,-0.101l0.09,-0.1l0.091,-0.099l0.092,-0.098l0.094,-0.097l0.094,-0.096l0.096,-0.094l0.097,-0.094l0.098,-0.092l0.099,-0.091l0.1,-0.09l0.101,-0.089l0.103,-0.088l0.103,-0.086l0.104,-0.085l0.106,-0.084l0.106,-0.083l0.108,-0.081l0.108,-0.08l0.11,-0.079l0.11,-0.078l0.112,-0.076l0.112,-0.075l0.113,-0.074l0.115,-0.072l0.115,-0.071l0.116,-0.07l0.117,-0.068l0.118,-0.067l0.119,-0.065l0.119,-0.064l0.121,-0.063l0.121,-0.061l0.122,-0.06l0.123,-0.058l0.124,-0.057l0.125,-0.056l0.125,-0.054l0.126,-0.052l0.127,-0.051l0.128,-0.05l0.128,-0.048l0.13,-0.046l0.13,-0.045l0.13,-0.044l0.132,-0.041l0.132,-0.041l0.132,-0.038l0.134,-0.037l0.134,-0.036l0.134,-0.033l0.136,-0.033l0.136,-0.03l0.136,-0.029l0.137,-0.027l0.138,-0.026l0.139,-0.023l0.138,-0.023l0.14,-0.02l0.14,-0.019l0.141,-0.017l0.141,-0.015l0.141,-0.014l0.142,-0.011l0.143,-0.01l0.143,-0.008l0.144,-0.007l0.144,-0.004l0.144,-0.003l0.145,-0.001l0.145,0.001Zm-0.265,2l-0.119,0.002l-0.118,0.004l-0.119,0.005l-0.118,0.007l-0.117,0.008l-0.116,0.01l-0.117,0.011l-0.116,0.012l-0.115,0.014l-0.115,0.016l-0.115,0.016l-0.114,0.019l-0.114,0.019l-0.113,0.021l-0.112,0.022l-0.112,0.024l-0.112,0.025l-0.111,0.027l-0.111,0.027l-0.109,0.029l-0.11,0.031l-0.109,0.031l-0.108,0.033l-0.108,0.035l-0.107,0.035l-0.106,0.037l-0.106,0.038l-0.106,0.04l-0.105,0.04l-0.104,0.042l-0.103,0.043l-0.103,0.044l-0.102,0.046l-0.102,0.047l-0.101,0.047l-0.1,0.05l-0.1,0.05l-0.099,0.051l-0.098,0.053l-0.098,0.054l-0.097,0.055l-0.096,0.056l-0.095,0.057l-0.095,0.058l-0.094,0.06l-0.093,0.06l-0.092,0.062l-0.092,0.063l-0.091,0.063l-0.09,0.065l-0.089,0.066l-0.089,0.067l-0.087,0.068l-0.087,0.069l-0.086,0.07l-0.085,0.071l-0.084,0.073l-0.083,0.073l-0.083,0.074l-0.081,0.075l-0.081,0.075l-0.08,0.078l-0.079,0.077l-0.077,0.079l-0.077,0.08l-0.076,0.081l-0.075,0.081l-0.074,0.083l-0.073,0.083l-0.072,0.084l-0.072,0.085l-0.07,0.086l-0.069,0.087l-0.068,0.088l-0.067,0.088l-0.066,0.089l-0.064,0.09l-0.064,0.091l-0.063,0.092l-0.062,0.092l-0.06,0.093l-0.06,0.094l-0.058,0.095l-0.057,0.095l-0.056,0.096l-0.055,0.097l-0.054,0.098l-0.053,0.098l-0.051,0.099l-0.05,0.1l-0.049,0.1l-0.048,0.101l-0.047,0.102l-0.046,0.102l-0.044,0.103l-0.043,0.103l-0.042,0.104l-0.041,0.105l-0.039,0.106l-0.038,0.106l-0.037,0.106l-0.035,0.107l-0.035,0.108l-0.033,0.108l-0.031,0.109l-0.031,0.11l-0.029,0.11l-0.027,0.11l-0.027,0.111l-0.025,0.112l-0.024,0.112l-0.022,0.112l-0.021,0.113l-0.019,0.114l-0.019,0.114l-0.016,0.114l-0.016,0.115l-0.014,0.116l-0.012,0.116l-0.011,0.116l-0.01,0.117l-0.008,0.118l-0.007,0.117l-0.005,0.119l-0.004,0.118l-0.002,0.119l-0.001,0.119l0,0.046l0.001,0.046l0.002,0.048l0.002,0.048l0.003,0.05l0.004,0.051l0.004,0.052l0.006,0.053l0.006,0.054l0.006,0.056l0.008,0.056l0.008,0.058l0.009,0.059l0.01,0.059l0.01,0.061l0.012,0.062l0.012,0.063l0.013,0.063l0.014,0.064l0.014,0.062l0.032,0.137l0.035,0.137l0.038,0.14l0.042,0.143l0.044,0.146l0.048,0.149l0.051,0.152l0.053,0.154l0.057,0.157l0.06,0.159l0.063,0.161l0.065,0.163l0.069,0.165l0.071,0.167l0.074,0.169l0.076,0.171l0.079,0.172l0.082,0.174l0.084,0.175l0.086,0.176l0.089,0.178l0.091,0.179l0.093,0.18l0.095,0.181l0.097,0.182l0.1,0.183l0.101,0.184l0.103,0.184l0.105,0.185l0.106,0.185l0.109,0.187l0.109,0.186l0.112,0.187l0.113,0.187l0.114,0.187l0.115,0.188l0.117,0.187l0.118,0.188l0.119,0.188l0.12,0.187l0.122,0.187l0.122,0.188l0.123,0.186l0.123,0.187l0.125,0.186l0.125,0.185l0.126,0.185l0.126,0.185l0.127,0.184l0.126,0.181l0.256,0.365l0.256,0.36l0.256,0.356l0.256,0.352l0.255,0.347l0.254,0.341l0.252,0.335l0.249,0.329l0.247,0.321l0.243,0.315l0.24,0.307l0.234,0.299l0.23,0.29l0.225,0.281l0.218,0.272l0.212,0.261l0.205,0.251l0.197,0.241l0.189,0.229l0.02,0.023l0.02,-0.023l0.189,-0.229l0.197,-0.241l0.205,-0.251l0.212,-0.261l0.218,-0.272l0.224,-0.281l0.23,-0.29l0.235,-0.299l0.24,-0.307l0.243,-0.315l0.246,-0.321l0.25,-0.329l0.252,-0.335l0.254,-0.342l0.255,-0.346l0.256,-0.352l0.256,-0.356l0.256,-0.36l0.256,-0.365l0.126,-0.181l0.127,-0.184l0.126,-0.185l0.126,-0.185l0.125,-0.185l0.124,-0.186l0.124,-0.187l0.123,-0.186l0.122,-0.188l0.121,-0.187l0.121,-0.187l0.119,-0.188l0.118,-0.188l0.117,-0.187l0.115,-0.188l0.114,-0.187l0.113,-0.187l0.111,-0.187l0.11,-0.186l0.109,-0.187l0.106,-0.185l0.105,-0.185l0.103,-0.184l0.101,-0.184l0.1,-0.183l0.097,-0.182l0.095,-0.181l0.093,-0.18l0.091,-0.179l0.089,-0.178l0.086,-0.176l0.084,-0.175l0.082,-0.174l0.079,-0.172l0.076,-0.171l0.074,-0.169l0.071,-0.167l0.069,-0.165l0.065,-0.163l0.063,-0.161l0.06,-0.159l0.056,-0.157l0.054,-0.154l0.051,-0.152l0.048,-0.149l0.044,-0.146l0.041,-0.143l0.039,-0.14l0.035,-0.137l0.032,-0.137l0.014,-0.062l0.014,-0.064l0.013,-0.063l0.012,-0.063l0.011,-0.062l0.011,-0.06l0.01,-0.06l0.009,-0.059l0.008,-0.058l0.008,-0.056l0.006,-0.056l0.006,-0.054l0.005,-0.053l0.005,-0.052l0.004,-0.051l0.003,-0.05l0.002,-0.049l0.002,-0.047l0,-0.046l0.001,-0.046l-0.001,-0.119l-0.002,-0.119l-0.004,-0.118l-0.005,-0.119l-0.007,-0.117l-0.008,-0.118l-0.01,-0.117l-0.011,-0.116l-0.012,-0.116l-0.014,-0.116l-0.016,-0.115l-0.017,-0.114l-0.018,-0.114l-0.019,-0.114l-0.021,-0.113l-0.023,-0.112l-0.023,-0.112l-0.025,-0.112l-0.027,-0.111l-0.027,-0.11l-0.03,-0.11l-0.03,-0.11l-0.031,-0.109l-0.034,-0.108l-0.034,-0.108l-0.035,-0.107l-0.037,-0.106l-0.038,-0.106l-0.04,-0.106l-0.04,-0.105l-0.042,-0.104l-0.043,-0.103l-0.044,-0.103l-0.046,-0.102l-0.047,-0.102l-0.048,-0.101l-0.049,-0.1l-0.05,-0.1l-0.052,-0.099l-0.052,-0.098l-0.054,-0.098l-0.055,-0.097l-0.056,-0.096l-0.057,-0.095l-0.059,-0.095l-0.059,-0.094l-0.06,-0.093l-0.062,-0.092l-0.063,-0.092l-0.064,-0.091l-0.065,-0.09l-0.066,-0.089l-0.066,-0.088l-0.068,-0.088l-0.07,-0.087l-0.07,-0.086l-0.071,-0.085l-0.072,-0.084l-0.073,-0.083l-0.074,-0.083l-0.075,-0.081l-0.076,-0.081l-0.077,-0.08l-0.078,-0.079l-0.078,-0.077l-0.08,-0.078l-0.081,-0.075l-0.081,-0.075l-0.083,-0.074l-0.083,-0.074l-0.084,-0.072l-0.085,-0.071l-0.086,-0.07l-0.087,-0.069l-0.088,-0.068l-0.088,-0.067l-0.089,-0.066l-0.09,-0.065l-0.091,-0.063l-0.092,-0.063l-0.092,-0.062l-0.093,-0.06l-0.094,-0.06l-0.095,-0.058l-0.095,-0.057l-0.097,-0.056l-0.096,-0.055l-0.098,-0.054l-0.098,-0.053l-0.099,-0.051l-0.1,-0.05l-0.1,-0.05l-0.101,-0.047l-0.102,-0.047l-0.102,-0.046l-0.103,-0.044l-0.103,-0.043l-0.105,-0.042l-0.104,-0.04l-0.106,-0.04l-0.106,-0.038l-0.106,-0.037l-0.107,-0.035l-0.108,-0.035l-0.109,-0.033l-0.108,-0.031l-0.11,-0.031l-0.11,-0.029l-0.11,-0.027l-0.111,-0.027l-0.112,-0.025l-0.112,-0.024l-0.112,-0.022l-0.113,-0.021l-0.114,-0.019l-0.114,-0.019l-0.115,-0.016l-0.115,-0.016l-0.115,-0.014l-0.116,-0.012l-0.117,-0.011l-0.117,-0.01l-0.117,-0.008l-0.117,-0.007l-0.119,-0.005l-0.118,-0.004l-0.119,-0.002l-0.12,-0.001l-0.12,0.001Z" style="fill:#fff;"/>
    <circle cx="11.218" cy="11.282" r="6.817" style="fill:#fff;"/>
    <path d="M11.306,4.466l0.088,0.002l0.087,0.002l0.087,0.004l0.087,0.005l0.087,0.006l0.086,0.007l0.086,0.009l0.086,0.009l0.086,0.01l0.085,0.012l0.084,0.012l0.085,0.013l0.084,0.015l0.084,0.015l0.083,0.017l0.083,0.018l0.083,0.018l0.082,0.02l0.082,0.02l0.081,0.022l0.081,0.022l0.081,0.024l0.08,0.024l0.08,0.025l0.079,0.027l0.079,0.027l0.079,0.028l0.078,0.029l0.077,0.031l0.077,0.031l0.077,0.031l0.076,0.033l0.076,0.034l0.075,0.035l0.075,0.035l0.074,0.036l0.074,0.038l0.073,0.038l0.073,0.039l0.072,0.039l0.072,0.041l0.071,0.042l0.07,0.042l0.07,0.043l0.07,0.044l0.069,0.045l0.068,0.045l0.068,0.047l0.067,0.047l0.066,0.048l0.066,0.048l0.066,0.05l0.064,0.05l0.064,0.051l0.064,0.052l0.063,0.052l0.062,0.053l0.061,0.054l0.061,0.055l0.06,0.055l0.06,0.057l0.059,0.056l0.058,0.058l0.058,0.058l0.056,0.059l0.056,0.059l0.056,0.061l0.054,0.061l0.054,0.061l0.054,0.062l0.052,0.063l0.052,0.063l0.051,0.065l0.05,0.064l0.05,0.066l0.048,0.066l0.048,0.066l0.047,0.067l0.047,0.068l0.045,0.068l0.045,0.069l0.044,0.069l0.043,0.07l0.042,0.071l0.042,0.071l0.04,0.072l0.04,0.072l0.039,0.073l0.038,0.073l0.038,0.074l0.036,0.074l0.035,0.075l0.035,0.075l0.034,0.076l0.032,0.076l0.032,0.076l0.031,0.078l0.03,0.077l0.03,0.078l0.028,0.079l0.027,0.079l0.026,0.079l0.026,0.08l0.024,0.08l0.024,0.081l0.022,0.081l0.022,0.081l0.02,0.082l0.02,0.082l0.018,0.083l0.018,0.083l0.016,0.083l0.016,0.084l0.014,0.084l0.014,0.084l0.012,0.085l0.012,0.085l0.01,0.086l0.009,0.085l0.008,0.086l0.008,0.087l0.006,0.086l0.005,0.087l0.003,0.088l0.003,0.087l0.002,0.088l0.001,0.088l-0.001,0.088l-0.002,0.088l-0.003,0.087l-0.003,0.088l-0.005,0.086l-0.006,0.087l-0.008,0.086l-0.008,0.087l-0.009,0.085l-0.01,0.086l-0.012,0.085l-0.012,0.084l-0.014,0.085l-0.014,0.084l-0.016,0.084l-0.016,0.083l-0.018,0.083l-0.018,0.083l-0.02,0.082l-0.02,0.082l-0.022,0.081l-0.022,0.081l-0.024,0.081l-0.024,0.08l-0.026,0.08l-0.026,0.079l-0.027,0.079l-0.028,0.079l-0.03,0.078l-0.03,0.077l-0.031,0.078l-0.032,0.076l-0.032,0.076l-0.034,0.076l-0.035,0.075l-0.035,0.075l-0.036,0.074l-0.038,0.074l-0.038,0.073l-0.039,0.073l-0.04,0.072l-0.04,0.072l-0.042,0.071l-0.042,0.07l-0.043,0.07l-0.044,0.07l-0.045,0.069l-0.045,0.068l-0.047,0.068l-0.047,0.067l-0.048,0.066l-0.048,0.066l-0.05,0.066l-0.05,0.064l-0.051,0.064l-0.052,0.064l-0.052,0.063l-0.054,0.062l-0.054,0.061l-0.054,0.061l-0.056,0.06l-0.056,0.06l-0.056,0.059l-0.058,0.058l-0.058,0.058l-0.059,0.056l-0.06,0.056l-0.06,0.056l-0.061,0.055l-0.061,0.053l-0.062,0.054l-0.063,0.052l-0.064,0.052l-0.064,0.051l-0.064,0.05l-0.066,0.05l-0.066,0.048l-0.066,0.048l-0.067,0.047l-0.068,0.047l-0.068,0.045l-0.069,0.045l-0.07,0.044l-0.07,0.043l-0.07,0.042l-0.071,0.042l-0.072,0.041l-0.072,0.039l-0.073,0.039l-0.073,0.038l-0.074,0.038l-0.074,0.036l-0.075,0.035l-0.075,0.035l-0.076,0.034l-0.076,0.033l-0.077,0.031l-0.077,0.031l-0.077,0.03l-0.078,0.03l-0.079,0.028l-0.079,0.027l-0.079,0.026l-0.08,0.026l-0.08,0.024l-0.081,0.024l-0.081,0.022l-0.081,0.022l-0.082,0.02l-0.082,0.02l-0.083,0.018l-0.083,0.018l-0.083,0.016l-0.084,0.016l-0.084,0.014l-0.085,0.014l-0.084,0.012l-0.085,0.012l-0.086,0.01l-0.086,0.009l-0.086,0.009l-0.086,0.007l-0.087,0.006l-0.087,0.005l-0.087,0.004l-0.087,0.002l-0.088,0.002l-0.088,0.001l-0.088,-0.001l-0.088,-0.002l-0.087,-0.002l-0.088,-0.004l-0.087,-0.005l-0.086,-0.006l-0.087,-0.007l-0.086,-0.009l-0.085,-0.009l-0.086,-0.01l-0.085,-0.012l-0.085,-0.012l-0.084,-0.014l-0.084,-0.014l-0.084,-0.016l-0.083,-0.016l-0.083,-0.018l-0.083,-0.018l-0.082,-0.02l-0.082,-0.02l-0.081,-0.022l-0.081,-0.022l-0.081,-0.024l-0.08,-0.024l-0.08,-0.026l-0.079,-0.026l-0.079,-0.027l-0.079,-0.028l-0.078,-0.03l-0.078,-0.03l-0.077,-0.031l-0.076,-0.031l-0.077,-0.033l-0.075,-0.034l-0.076,-0.035l-0.074,-0.035l-0.074,-0.036l-0.074,-0.038l-0.073,-0.038l-0.073,-0.039l-0.072,-0.039l-0.072,-0.041l-0.071,-0.042l-0.071,-0.042l-0.07,-0.043l-0.069,-0.044l-0.069,-0.045l-0.068,-0.045l-0.068,-0.047l-0.067,-0.047l-0.067,-0.048l-0.065,-0.048l-0.066,-0.05l-0.064,-0.05l-0.065,-0.051l-0.063,-0.052l-0.063,-0.052l-0.062,-0.054l-0.062,-0.053l-0.06,-0.055l-0.061,-0.056l-0.059,-0.056l-0.059,-0.056l-0.058,-0.058l-0.058,-0.058l-0.056,-0.059l-0.057,-0.06l-0.055,-0.06l-0.055,-0.061l-0.054,-0.061l-0.053,-0.062l-0.052,-0.063l-0.052,-0.064l-0.051,-0.064l-0.05,-0.064l-0.05,-0.066l-0.048,-0.066l-0.048,-0.066l-0.047,-0.067l-0.047,-0.068l-0.045,-0.068l-0.045,-0.069l-0.044,-0.07l-0.043,-0.07l-0.043,-0.07l-0.041,-0.071l-0.041,-0.072l-0.039,-0.072l-0.039,-0.073l-0.038,-0.073l-0.038,-0.074l-0.036,-0.074l-0.036,-0.075l-0.034,-0.075l-0.034,-0.076l-0.033,-0.076l-0.032,-0.076l-0.031,-0.078l-0.03,-0.077l-0.029,-0.078l-0.028,-0.079l-0.027,-0.079l-0.027,-0.079l-0.025,-0.08l-0.024,-0.08l-0.024,-0.081l-0.022,-0.081l-0.022,-0.081l-0.02,-0.082l-0.02,-0.082l-0.019,-0.083l-0.017,-0.083l-0.017,-0.083l-0.015,-0.084l-0.015,-0.084l-0.013,-0.085l-0.012,-0.084l-0.012,-0.085l-0.01,-0.086l-0.009,-0.085l-0.009,-0.087l-0.007,-0.086l-0.006,-0.087l-0.005,-0.086l-0.004,-0.088l-0.002,-0.087l-0.002,-0.088l-0.001,-0.088l0.001,-0.088l0.002,-0.088l0.002,-0.087l0.004,-0.088l0.005,-0.087l0.006,-0.086l0.007,-0.087l0.009,-0.086l0.009,-0.085l0.01,-0.086l0.012,-0.085l0.012,-0.085l0.013,-0.084l0.015,-0.084l0.015,-0.084l0.017,-0.083l0.017,-0.083l0.019,-0.083l0.02,-0.082l0.02,-0.082l0.022,-0.081l0.022,-0.081l0.024,-0.081l0.024,-0.08l0.025,-0.08l0.027,-0.079l0.027,-0.079l0.028,-0.079l0.029,-0.078l0.03,-0.077l0.031,-0.078l0.032,-0.076l0.033,-0.076l0.034,-0.076l0.034,-0.075l0.036,-0.075l0.036,-0.074l0.038,-0.074l0.038,-0.073l0.039,-0.073l0.039,-0.072l0.041,-0.072l0.041,-0.071l0.043,-0.071l0.043,-0.07l0.044,-0.069l0.045,-0.069l0.045,-0.068l0.047,-0.068l0.047,-0.067l0.048,-0.066l0.048,-0.066l0.05,-0.066l0.05,-0.064l0.051,-0.065l0.052,-0.063l0.052,-0.063l0.053,-0.062l0.054,-0.061l0.055,-0.061l0.055,-0.061l0.057,-0.059l0.056,-0.059l0.058,-0.058l0.058,-0.058l0.059,-0.056l0.059,-0.057l0.061,-0.055l0.06,-0.055l0.062,-0.054l0.062,-0.053l0.063,-0.052l0.063,-0.052l0.065,-0.051l0.064,-0.05l0.066,-0.05l0.065,-0.048l0.067,-0.048l0.067,-0.047l0.068,-0.047l0.068,-0.045l0.069,-0.045l0.069,-0.044l0.07,-0.043l0.071,-0.042l0.071,-0.042l0.072,-0.041l0.072,-0.039l0.073,-0.039l0.073,-0.038l0.074,-0.038l0.074,-0.036l0.074,-0.035l0.076,-0.035l0.075,-0.034l0.077,-0.033l0.076,-0.031l0.077,-0.031l0.078,-0.031l0.078,-0.029l0.079,-0.028l0.079,-0.027l0.079,-0.027l0.08,-0.025l0.08,-0.024l0.081,-0.024l0.081,-0.022l0.081,-0.022l0.082,-0.02l0.082,-0.02l0.083,-0.018l0.083,-0.018l0.083,-0.017l0.084,-0.015l0.084,-0.015l0.084,-0.013l0.085,-0.012l0.085,-0.012l0.086,-0.01l0.085,-0.009l0.086,-0.009l0.087,-0.007l0.086,-0.006l0.087,-0.005l0.088,-0.004l0.087,-0.002l0.088,-0.002l0.088,-0.001l0.088,0.001Zm-0.151,2l-0.062,0.001l-0.062,0.002l-0.062,0.003l-0.062,0.003l-0.061,0.005l-0.061,0.005l-0.061,0.005l-0.061,0.007l-0.06,0.007l-0.061,0.008l-0.059,0.009l-0.06,0.01l-0.059,0.01l-0.059,0.011l-0.059,0.011l-0.058,0.013l-0.058,0.013l-0.058,0.013l-0.058,0.015l-0.057,0.015l-0.057,0.016l-0.057,0.017l-0.057,0.017l-0.056,0.017l-0.056,0.019l-0.055,0.019l-0.056,0.02l-0.055,0.021l-0.055,0.021l-0.054,0.022l-0.054,0.022l-0.054,0.023l-0.053,0.024l-0.053,0.025l-0.053,0.025l-0.052,0.025l-0.052,0.026l-0.052,0.027l-0.051,0.028l-0.051,0.028l-0.05,0.028l-0.051,0.03l-0.05,0.03l-0.05,0.031l-0.048,0.03l-0.049,0.032l-0.048,0.032l-0.048,0.033l-0.048,0.033l-0.047,0.034l-0.047,0.035l-0.046,0.035l-0.045,0.035l-0.046,0.037l-0.045,0.036l-0.044,0.037l-0.044,0.038l-0.044,0.038l-0.043,0.039l-0.043,0.039l-0.042,0.04l-0.042,0.041l-0.041,0.04l-0.04,0.041l-0.041,0.042l-0.04,0.042l-0.039,0.043l-0.039,0.043l-0.038,0.044l-0.038,0.044l-0.037,0.044l-0.037,0.045l-0.036,0.045l-0.035,0.046l-0.035,0.047l-0.035,0.046l-0.034,0.047l-0.033,0.048l-0.033,0.048l-0.032,0.048l-0.032,0.049l-0.031,0.049l-0.03,0.049l-0.03,0.05l-0.029,0.051l-0.029,0.05l-0.028,0.051l-0.028,0.051l-0.027,0.052l-0.026,0.052l-0.025,0.052l-0.025,0.053l-0.025,0.053l-0.024,0.054l-0.023,0.053l-0.022,0.054l-0.022,0.055l-0.021,0.054l-0.021,0.055l-0.02,0.056l-0.019,0.055l-0.018,0.056l-0.018,0.056l-0.018,0.057l-0.016,0.057l-0.016,0.057l-0.015,0.057l-0.015,0.058l-0.013,0.058l-0.013,0.058l-0.013,0.058l-0.011,0.059l-0.011,0.059l-0.011,0.059l-0.009,0.06l-0.009,0.06l-0.008,0.06l-0.007,0.06l-0.007,0.061l-0.005,0.06l-0.005,0.062l-0.005,0.061l-0.003,0.062l-0.003,0.062l-0.002,0.062l-0.001,0.062l-0.001,0.063l0.001,0.063l0.001,0.062l0.002,0.062l0.003,0.062l0.003,0.062l0.005,0.061l0.005,0.061l0.005,0.061l0.007,0.061l0.007,0.06l0.008,0.06l0.009,0.06l0.009,0.06l0.011,0.059l0.011,0.059l0.011,0.059l0.013,0.058l0.013,0.058l0.013,0.058l0.015,0.058l0.015,0.057l0.016,0.057l0.016,0.057l0.018,0.057l0.018,0.056l0.018,0.055l0.019,0.056l0.02,0.056l0.021,0.055l0.021,0.054l0.022,0.054l0.022,0.054l0.023,0.055l0.024,0.053l0.024,0.053l0.026,0.053l0.025,0.052l0.026,0.052l0.027,0.052l0.028,0.051l0.028,0.051l0.029,0.051l0.029,0.05l0.03,0.05l0.03,0.049l0.031,0.049l0.032,0.049l0.032,0.048l0.033,0.048l0.033,0.048l0.034,0.047l0.035,0.046l0.035,0.047l0.035,0.045l0.036,0.046l0.037,0.045l0.037,0.044l0.038,0.044l0.038,0.044l0.039,0.043l0.039,0.043l0.04,0.042l0.04,0.042l0.041,0.041l0.041,0.041l0.042,0.04l0.042,0.039l0.043,0.04l0.043,0.039l0.044,0.038l0.044,0.038l0.044,0.037l0.045,0.036l0.046,0.037l0.045,0.035l0.047,0.035l0.046,0.035l0.047,0.033l0.048,0.034l0.048,0.032l0.048,0.033l0.049,0.032l0.049,0.031l0.05,0.03l0.049,0.03l0.05,0.029l0.051,0.029l0.051,0.028l0.051,0.028l0.052,0.026l0.052,0.027l0.052,0.025l0.053,0.025l0.053,0.025l0.053,0.024l0.054,0.023l0.055,0.022l0.053,0.022l0.055,0.021l0.055,0.021l0.056,0.02l0.055,0.019l0.056,0.018l0.056,0.018l0.057,0.017l0.057,0.017l0.057,0.016l0.057,0.015l0.058,0.014l0.058,0.014l0.058,0.013l0.058,0.013l0.059,0.011l0.059,0.011l0.059,0.01l0.06,0.01l0.06,0.009l0.06,0.008l0.06,0.007l0.061,0.007l0.061,0.005l0.061,0.005l0.061,0.005l0.062,0.003l0.062,0.003l0.062,0.002l0.062,0.001l0.063,0.001l0.063,-0.001l0.062,-0.001l0.062,-0.002l0.062,-0.003l0.062,-0.003l0.061,-0.005l0.061,-0.005l0.061,-0.005l0.061,-0.007l0.06,-0.007l0.06,-0.008l0.06,-0.009l0.06,-0.01l0.059,-0.01l0.059,-0.011l0.059,-0.011l0.058,-0.013l0.058,-0.013l0.058,-0.014l0.058,-0.014l0.057,-0.015l0.057,-0.016l0.057,-0.017l0.057,-0.017l0.056,-0.018l0.055,-0.018l0.056,-0.019l0.055,-0.02l0.056,-0.021l0.054,-0.021l0.054,-0.022l0.055,-0.022l0.053,-0.024l0.054,-0.023l0.053,-0.025l0.053,-0.025l0.052,-0.025l0.052,-0.027l0.052,-0.026l0.051,-0.028l0.051,-0.028l0.051,-0.029l0.05,-0.029l0.049,-0.03l0.05,-0.03l0.049,-0.031l0.049,-0.032l0.048,-0.032l0.048,-0.033l0.048,-0.034l0.047,-0.033l0.046,-0.035l0.047,-0.035l0.045,-0.036l0.046,-0.036l0.045,-0.036l0.044,-0.038l0.044,-0.037l0.044,-0.038l0.043,-0.039l0.043,-0.04l0.042,-0.039l0.041,-0.04l0.042,-0.041l0.041,-0.041l0.04,-0.042l0.039,-0.042l0.04,-0.043l0.039,-0.043l0.038,-0.044l0.037,-0.044l0.038,-0.044l0.036,-0.045l0.036,-0.046l0.036,-0.045l0.035,-0.047l0.035,-0.046l0.033,-0.047l0.034,-0.048l0.033,-0.048l0.032,-0.048l0.031,-0.049l0.032,-0.049l0.03,-0.049l0.03,-0.05l0.029,-0.05l0.029,-0.051l0.028,-0.051l0.027,-0.051l0.027,-0.052l0.027,-0.052l0.025,-0.052l0.025,-0.053l0.025,-0.053l0.023,-0.053l0.024,-0.055l0.022,-0.054l0.022,-0.054l0.021,-0.054l0.021,-0.055l0.02,-0.056l0.019,-0.055l0.018,-0.056l0.018,-0.056l0.017,-0.057l0.017,-0.057l0.016,-0.057l0.015,-0.057l0.014,-0.058l0.014,-0.058l0.013,-0.058l0.013,-0.058l0.011,-0.059l0.011,-0.059l0.01,-0.059l0.01,-0.06l0.009,-0.06l0.008,-0.06l0.007,-0.06l0.006,-0.061l0.006,-0.061l0.005,-0.061l0.005,-0.061l0.003,-0.062l0.003,-0.062l0.002,-0.062l0.001,-0.062l0,-0.063l0,-0.063l-0.001,-0.062l-0.002,-0.062l-0.003,-0.062l-0.003,-0.062l-0.005,-0.061l-0.005,-0.061l-0.006,-0.061l-0.006,-0.061l-0.007,-0.06l-0.008,-0.06l-0.009,-0.06l-0.01,-0.06l-0.01,-0.059l-0.011,-0.059l-0.011,-0.059l-0.013,-0.058l-0.013,-0.058l-0.014,-0.058l-0.014,-0.058l-0.015,-0.057l-0.016,-0.057l-0.017,-0.057l-0.017,-0.057l-0.018,-0.056l-0.018,-0.056l-0.019,-0.055l-0.02,-0.056l-0.021,-0.055l-0.021,-0.054l-0.022,-0.055l-0.022,-0.054l-0.024,-0.053l-0.023,-0.054l-0.025,-0.053l-0.025,-0.053l-0.025,-0.052l-0.027,-0.052l-0.027,-0.052l-0.027,-0.051l-0.028,-0.051l-0.029,-0.05l-0.029,-0.051l-0.03,-0.05l-0.03,-0.049l-0.032,-0.049l-0.031,-0.049l-0.033,-0.049l-0.032,-0.047l-0.034,-0.048l-0.033,-0.047l-0.035,-0.046l-0.035,-0.047l-0.036,-0.046l-0.036,-0.045l-0.036,-0.045l-0.038,-0.044l-0.037,-0.044l-0.038,-0.044l-0.039,-0.043l-0.039,-0.043l-0.04,-0.042l-0.041,-0.042l-0.04,-0.041l-0.041,-0.04l-0.042,-0.041l-0.043,-0.04l-0.042,-0.039l-0.043,-0.039l-0.044,-0.038l-0.044,-0.038l-0.044,-0.037l-0.045,-0.036l-0.046,-0.036l-0.045,-0.036l-0.047,-0.035l-0.046,-0.035l-0.048,-0.034l-0.047,-0.033l-0.048,-0.033l-0.048,-0.032l-0.049,-0.032l-0.049,-0.03l-0.049,-0.031l-0.051,-0.03l-0.05,-0.03l-0.05,-0.028l-0.051,-0.028l-0.051,-0.028l-0.052,-0.027l-0.052,-0.026l-0.052,-0.025l-0.053,-0.025l-0.053,-0.025l-0.054,-0.024l-0.053,-0.023l-0.054,-0.022l-0.055,-0.022l-0.054,-0.021l-0.056,-0.021l-0.055,-0.02l-0.056,-0.019l-0.056,-0.019l-0.055,-0.017l-0.057,-0.017l-0.057,-0.017l-0.057,-0.016l-0.057,-0.015l-0.058,-0.015l-0.058,-0.013l-0.058,-0.013l-0.058,-0.013l-0.059,-0.011l-0.059,-0.011l-0.059,-0.01l-0.06,-0.01l-0.06,-0.009l-0.06,-0.008l-0.06,-0.007l-0.061,-0.007l-0.061,-0.005l-0.061,-0.005l-0.061,-0.005l-0.062,-0.003l-0.062,-0.003l-0.062,-0.002l-0.062,-0.001l-0.063,-0.001l-0.063,0.001Z"/>
</svg>
