<svg width="148" height="41" viewBox="0 0 148 41" version="1.1" xmlns="http://www.w3.org/2000/svg" xmlns:xlink="http://www.w3.org/1999/xlink" xml:space="preserve" xmlns:serif="http://www.serif.com/" style="fill-rule:evenodd;clip-rule:evenodd;stroke-linejoin:round;stroke-miterlimit:1.41421;">
    <g id="бренды">
        <path d="M10.091,24.805l0,-6.34c-0.179,0 -0.345,0.02 -0.499,0.059c-0.154,0.039 -0.31,0.123 -0.468,0.252c-0.158,0.129 -0.328,0.32 -0.51,0.574c-0.183,0.254 -0.387,0.592 -0.614,1.014l-2.371,4.441l-5.629,0l2.991,-4.945c0.397,-0.649 0.76,-1.182 1.088,-1.6c0.328,-0.418 0.642,-0.756 0.942,-1.014c0.3,-0.257 0.598,-0.449 0.894,-0.574c0.295,-0.125 0.605,-0.215 0.93,-0.269c-0.325,-0.071 -0.62,-0.161 -0.888,-0.27c-0.267,-0.109 -0.521,-0.256 -0.76,-0.439c-0.239,-0.184 -0.472,-0.411 -0.699,-0.68c-0.227,-0.27 -0.462,-0.6 -0.705,-0.99c-0.235,-0.368 -0.435,-0.659 -0.602,-0.873c-0.166,-0.215 -0.336,-0.377 -0.51,-0.487c-0.175,-0.109 -0.373,-0.181 -0.596,-0.216c-0.223,-0.036 -0.509,-0.053 -0.857,-0.053l0,-3.832c0.6,0 1.12,0.01 1.562,0.029c0.442,0.02 0.835,0.066 1.179,0.141c0.345,0.074 0.655,0.185 0.93,0.334c0.276,0.148 0.548,0.349 0.815,0.603c0.268,0.254 0.543,0.572 0.827,0.955c0.283,0.383 0.604,0.844 0.96,1.383c0.341,0.523 0.628,0.949 0.863,1.277c0.235,0.329 0.446,0.584 0.633,0.768c0.186,0.184 0.364,0.309 0.535,0.375c0.17,0.066 0.356,0.1 0.559,0.1l0,-5.965l4.875,0l0,5.965c0.211,0 0.399,-0.034 0.565,-0.1c0.166,-0.066 0.343,-0.191 0.529,-0.375c0.187,-0.184 0.397,-0.439 0.632,-0.768c0.235,-0.328 0.523,-0.754 0.863,-1.277c0.357,-0.547 0.675,-1.01 0.955,-1.389c0.279,-0.379 0.553,-0.695 0.821,-0.949c0.267,-0.254 0.541,-0.455 0.82,-0.603c0.28,-0.149 0.592,-0.26 0.936,-0.334c0.345,-0.075 0.74,-0.121 1.186,-0.141c0.445,-0.019 0.964,-0.029 1.556,-0.029l0,3.832c-0.357,0 -0.647,0.017 -0.869,0.053c-0.223,0.035 -0.42,0.107 -0.59,0.216c-0.17,0.11 -0.338,0.272 -0.505,0.487c-0.166,0.214 -0.366,0.505 -0.601,0.873c-0.252,0.39 -0.491,0.72 -0.718,0.99c-0.227,0.269 -0.458,0.496 -0.693,0.68c-0.235,0.183 -0.486,0.33 -0.753,0.439c-0.268,0.109 -0.568,0.199 -0.9,0.27c0.332,0.054 0.646,0.144 0.942,0.269c0.296,0.125 0.594,0.317 0.894,0.574c0.3,0.258 0.614,0.596 0.942,1.014c0.328,0.418 0.691,0.951 1.088,1.6l2.991,4.945l-5.629,0l-2.371,-4.441c-0.235,-0.422 -0.444,-0.76 -0.626,-1.014c-0.182,-0.254 -0.353,-0.445 -0.511,-0.574c-0.158,-0.129 -0.312,-0.213 -0.462,-0.252c-0.15,-0.039 -0.314,-0.059 -0.492,-0.059l0,6.34l-4.875,0Z" style="fill-rule:nonzero;"/>
        <path d="M38.024,19.86l-8.717,0c0.081,0.375 0.231,0.713 0.45,1.013c0.219,0.301 0.486,0.561 0.802,0.78c0.316,0.218 0.669,0.386 1.058,0.503c0.389,0.118 0.79,0.176 1.204,0.176c0.834,0 1.661,-0.111 2.48,-0.334c0.818,-0.222 1.621,-0.509 2.407,-0.861l0,2.613c-0.162,0.086 -0.401,0.199 -0.717,0.34c-0.317,0.141 -0.716,0.279 -1.198,0.416c-0.482,0.137 -1.048,0.256 -1.696,0.358c-0.648,0.101 -1.382,0.152 -2.2,0.152c-1.184,0 -2.219,-0.162 -3.107,-0.486c-0.887,-0.325 -1.625,-0.768 -2.212,-1.331c-0.588,-0.562 -1.03,-1.222 -1.326,-1.98c-0.295,-0.758 -0.443,-1.57 -0.443,-2.438c0,-0.867 0.148,-1.671 0.443,-2.414c0.296,-0.742 0.738,-1.388 1.326,-1.939c0.587,-0.551 1.325,-0.982 2.212,-1.295c0.888,-0.312 1.923,-0.469 3.107,-0.469c0.697,0 1.406,0.106 2.127,0.317c0.721,0.211 1.38,0.564 1.976,1.06c0.595,0.496 1.082,1.151 1.459,1.963c0.377,0.813 0.565,1.817 0.565,3.012l0,0.844Zm-4.109,-2.086c0,-0.375 -0.051,-0.719 -0.152,-1.032c-0.102,-0.312 -0.25,-0.578 -0.444,-0.796c-0.195,-0.219 -0.434,-0.389 -0.717,-0.51c-0.284,-0.121 -0.608,-0.182 -0.973,-0.182c-0.357,0 -0.685,0.061 -0.985,0.182c-0.3,0.121 -0.557,0.291 -0.772,0.51c-0.214,0.218 -0.383,0.484 -0.504,0.796c-0.122,0.313 -0.183,0.657 -0.183,1.032l4.73,0Z" style="fill-rule:nonzero;"/>
        <path d="M47.247,18.758l3.999,-5.883l3.441,0l1.07,11.93l-4.182,0l-0.547,-5.613l-3.781,5.613l-3.793,-5.613l-0.548,5.613l-4.182,0l1.07,-11.93l3.441,0l4.012,5.883Z" style="fill-rule:nonzero;"/>
        <path d="M65.539,24.805l0,-4.102c-0.438,0.352 -0.965,0.639 -1.581,0.862c-0.616,0.222 -1.386,0.334 -2.31,0.334c-0.842,0 -1.574,-0.092 -2.194,-0.276c-0.62,-0.183 -1.135,-0.472 -1.544,-0.867c-0.409,-0.394 -0.713,-0.894 -0.912,-1.5c-0.198,-0.605 -0.298,-1.33 -0.298,-2.174l0,-4.207l4.377,0l0,3.071c0,0.507 0.033,0.933 0.097,1.277c0.065,0.344 0.177,0.621 0.335,0.832c0.158,0.211 0.368,0.361 0.632,0.451c0.263,0.09 0.59,0.135 0.979,0.135c0.259,0 0.512,-0.033 0.759,-0.1c0.248,-0.066 0.479,-0.154 0.693,-0.263c0.215,-0.11 0.406,-0.233 0.572,-0.37c0.166,-0.136 0.298,-0.279 0.395,-0.427l0,-4.606l4.377,0l0,11.93l-4.377,0Z" style="fill-rule:nonzero;"/>
        <path d="M75.102,12.875l2.517,5.93l2.857,-5.93l4.255,0l-8.413,17.356l-4.426,0l3.405,-6.985l-4.9,-10.371l4.705,0Z" style="fill-rule:nonzero;"/>
        <path d="M92.081,19.977c-0.178,0 -0.344,0.025 -0.498,0.076c-0.154,0.051 -0.304,0.141 -0.45,0.27c-0.146,0.128 -0.292,0.304 -0.438,0.527c-0.146,0.223 -0.308,0.51 -0.486,0.861l-1.617,3.094l-4.875,0l2.638,-4.465c0.195,-0.344 0.379,-0.629 0.553,-0.855c0.174,-0.227 0.355,-0.411 0.541,-0.551c0.187,-0.141 0.385,-0.248 0.596,-0.322c0.211,-0.075 0.45,-0.131 0.717,-0.17c-0.219,-0.008 -0.433,-0.049 -0.644,-0.123c-0.211,-0.075 -0.405,-0.166 -0.584,-0.276c-0.178,-0.109 -0.336,-0.232 -0.474,-0.369c-0.138,-0.137 -0.247,-0.271 -0.328,-0.404l-0.255,-0.434c-0.098,-0.18 -0.189,-0.322 -0.274,-0.428c-0.085,-0.105 -0.176,-0.187 -0.273,-0.246c-0.098,-0.058 -0.209,-0.097 -0.335,-0.117c-0.125,-0.019 -0.281,-0.029 -0.468,-0.029l-0.523,0l0,-3.141l1.35,0c0.705,0 1.276,0.039 1.714,0.117c0.438,0.079 0.794,0.196 1.07,0.352c0.276,0.156 0.496,0.35 0.663,0.58c0.166,0.231 0.33,0.498 0.492,0.803l0.474,0.914c0.162,0.312 0.31,0.574 0.444,0.785c0.134,0.211 0.267,0.379 0.401,0.504c0.134,0.125 0.269,0.213 0.407,0.264c0.138,0.05 0.292,0.076 0.462,0.076l0,-4.395l4.182,0l0,4.371c0.171,0 0.325,-0.023 0.462,-0.07c0.138,-0.047 0.274,-0.133 0.408,-0.258c0.133,-0.125 0.267,-0.291 0.401,-0.498c0.134,-0.207 0.282,-0.467 0.444,-0.779l0.474,-0.914c0.154,-0.305 0.314,-0.572 0.48,-0.803c0.166,-0.23 0.387,-0.424 0.663,-0.58c0.275,-0.156 0.634,-0.273 1.076,-0.352c0.441,-0.078 1.015,-0.117 1.72,-0.117l1.337,0l0,3.141l-0.523,0c-0.178,0 -0.33,0.01 -0.455,0.029c-0.126,0.02 -0.238,0.059 -0.335,0.117c-0.097,0.059 -0.188,0.141 -0.273,0.246c-0.085,0.106 -0.177,0.248 -0.274,0.428l-0.255,0.434c-0.081,0.133 -0.191,0.267 -0.328,0.404c-0.138,0.137 -0.296,0.26 -0.475,0.369c-0.178,0.11 -0.372,0.201 -0.583,0.276c-0.211,0.074 -0.43,0.115 -0.657,0.123c0.268,0.039 0.507,0.095 0.718,0.17c0.21,0.074 0.407,0.181 0.589,0.322c0.183,0.14 0.363,0.324 0.541,0.551c0.179,0.226 0.369,0.511 0.572,0.855l2.638,4.465l-4.875,0l-1.617,-3.094c-0.187,-0.351 -0.353,-0.638 -0.499,-0.861c-0.146,-0.223 -0.289,-0.399 -0.431,-0.527c-0.142,-0.129 -0.288,-0.219 -0.438,-0.27c-0.15,-0.051 -0.318,-0.076 -0.505,-0.076l0,4.828l-4.182,0l0,-4.828Z" style="fill-rule:nonzero;"/>
        <path d="M109.413,12.875l0,5.906l5.301,-5.906l3.659,0l0,11.93l-4.255,0l0,-6.094l-5.349,6.094l-3.611,0l0,-11.93l4.255,0Z" style="fill-rule:nonzero;"/>
        <path d="M128.763,16.93l0,-4.055l4.377,0l0,11.93l-4.377,0l0,-4.606l-4.462,0l0,4.606l-4.377,0l0,-11.93l4.377,0l0,4.055l4.462,0Z" style="fill-rule:nonzero;"/>
        <path d="M134.582,14.293c0.834,-0.562 1.748,-0.974 2.741,-1.236c0.993,-0.262 2.024,-0.393 3.094,-0.393c0.924,0 1.725,0.09 2.401,0.27c0.677,0.18 1.236,0.433 1.678,0.762c0.442,0.328 0.772,0.722 0.991,1.183c0.219,0.461 0.328,0.977 0.328,1.547l0,4.605c0,0.422 0.041,0.745 0.122,0.967c0.081,0.223 0.239,0.334 0.474,0.334c0.105,0 0.213,-0.013 0.322,-0.041c0.11,-0.027 0.215,-0.058 0.316,-0.093c0.101,-0.036 0.193,-0.073 0.274,-0.112c0.081,-0.039 0.15,-0.07 0.206,-0.094l0,2.215c-0.218,0.086 -0.453,0.176 -0.705,0.27c-0.251,0.094 -0.529,0.181 -0.833,0.263c-0.303,0.083 -0.638,0.149 -1.003,0.2c-0.364,0.05 -0.761,0.076 -1.191,0.076c-0.413,0 -0.75,-0.045 -1.009,-0.135c-0.259,-0.09 -0.466,-0.201 -0.62,-0.334c-0.154,-0.133 -0.266,-0.271 -0.334,-0.416c-0.069,-0.144 -0.12,-0.271 -0.152,-0.381c-0.171,0.133 -0.365,0.274 -0.584,0.422c-0.219,0.149 -0.48,0.285 -0.784,0.41c-0.304,0.125 -0.657,0.229 -1.058,0.311c-0.401,0.082 -0.869,0.123 -1.404,0.123c-0.729,0 -1.331,-0.096 -1.805,-0.287c-0.475,-0.192 -0.851,-0.434 -1.131,-0.727c-0.28,-0.293 -0.474,-0.615 -0.584,-0.967c-0.109,-0.351 -0.164,-0.691 -0.164,-1.019c0,-0.578 0.12,-1.072 0.359,-1.483c0.239,-0.41 0.567,-0.763 0.985,-1.06c0.417,-0.297 0.914,-0.555 1.489,-0.774c0.575,-0.218 1.2,-0.429 1.872,-0.632c0.47,-0.149 0.847,-0.266 1.131,-0.352c0.284,-0.086 0.51,-0.156 0.681,-0.211c0.17,-0.055 0.308,-0.103 0.413,-0.146c0.105,-0.043 0.219,-0.096 0.34,-0.159c0,-0.226 -0.018,-0.449 -0.054,-0.668c-0.037,-0.218 -0.12,-0.416 -0.249,-0.591c-0.13,-0.176 -0.325,-0.319 -0.584,-0.428c-0.259,-0.109 -0.612,-0.164 -1.058,-0.164c-0.527,0 -1.027,0.064 -1.501,0.193c-0.474,0.129 -0.918,0.297 -1.331,0.504c-0.414,0.207 -0.795,0.44 -1.143,0.697c-0.349,0.258 -0.661,0.52 -0.936,0.786l0,-3.235Zm6.856,4.805c-0.429,0.172 -0.826,0.338 -1.191,0.498c-0.365,0.16 -0.681,0.33 -0.948,0.51c-0.268,0.179 -0.476,0.383 -0.626,0.609c-0.15,0.227 -0.225,0.492 -0.225,0.797c0,0.219 0.034,0.406 0.103,0.562c0.069,0.157 0.16,0.284 0.274,0.381c0.113,0.098 0.241,0.17 0.383,0.217c0.141,0.047 0.285,0.07 0.431,0.07c0.178,0 0.357,-0.031 0.535,-0.093c0.178,-0.063 0.347,-0.137 0.505,-0.223c0.158,-0.086 0.304,-0.176 0.437,-0.27c0.134,-0.093 0.241,-0.171 0.322,-0.234l0,-2.824Z" style="fill-rule:nonzero;"/>
    </g>
    <g id="бренды1" serif:id="бренды">
        <path d="M17.281,38.692l0,-0.711c0.438,0.32 0.934,0.48 1.489,0.48c0.403,0 0.724,-0.097 0.962,-0.293c0.239,-0.195 0.358,-0.458 0.358,-0.789c0,-0.719 -0.486,-1.078 -1.457,-1.078l-0.582,0l0,-0.543l0.535,0c0.414,0 0.735,-0.09 0.963,-0.269c0.228,-0.18 0.342,-0.434 0.342,-0.762c0,-0.281 -0.095,-0.507 -0.284,-0.676c-0.188,-0.169 -0.448,-0.254 -0.779,-0.254c-0.468,0 -0.924,0.147 -1.367,0.442l0,-0.665c0.412,-0.229 0.885,-0.343 1.422,-0.343c0.531,0 0.949,0.126 1.254,0.379c0.304,0.252 0.457,0.584 0.457,0.996c0,0.726 -0.354,1.185 -1.063,1.375l0,0.015c0.386,0.045 0.692,0.189 0.918,0.434c0.227,0.245 0.34,0.548 0.34,0.91c0,0.513 -0.182,0.921 -0.547,1.225c-0.364,0.303 -0.863,0.455 -1.496,0.455c-0.633,0 -1.121,-0.11 -1.465,-0.328Z" style="fill-rule:nonzero;"/>
        <path d="M26.874,39.02c-0.794,0 -1.43,-0.262 -1.908,-0.785c-0.478,-0.524 -0.717,-1.205 -0.717,-2.043c0,-0.901 0.243,-1.62 0.73,-2.157c0.487,-0.536 1.15,-0.804 1.989,-0.804c0.773,0 1.396,0.26 1.869,0.781c0.472,0.521 0.709,1.202 0.709,2.043c0,0.914 -0.243,1.637 -0.727,2.168c-0.484,0.531 -1.133,0.797 -1.945,0.797Zm0.047,-5.196c-0.589,0 -1.067,0.213 -1.434,0.637c-0.367,0.425 -0.551,0.982 -0.551,1.672c0,0.69 0.179,1.245 0.538,1.666c0.358,0.421 0.824,0.631 1.4,0.631c0.614,0 1.099,-0.201 1.453,-0.602c0.354,-0.401 0.531,-0.962 0.531,-1.683c0,-0.74 -0.172,-1.311 -0.516,-1.715c-0.343,-0.404 -0.817,-0.606 -1.421,-0.606Z" style="fill-rule:nonzero;"/>
        <path d="M37.314,38.926l-0.656,0l0,-5.008l-1.555,0c-0.18,1.412 -0.322,2.409 -0.426,2.992c-0.104,0.584 -0.209,1.013 -0.316,1.289c-0.107,0.276 -0.251,0.482 -0.434,0.616c-0.182,0.134 -0.401,0.201 -0.656,0.201c-0.206,0 -0.384,-0.027 -0.535,-0.082l0,-0.617c0.133,0.075 0.28,0.113 0.441,0.113c0.162,0 0.313,-0.096 0.455,-0.289c0.142,-0.193 0.287,-0.694 0.434,-1.504c0.147,-0.81 0.31,-1.914 0.49,-3.313l2.758,0l0,5.602Z" style="fill-rule:nonzero;"/>
        <path d="M43.848,39.02c-0.794,0 -1.43,-0.262 -1.908,-0.785c-0.478,-0.524 -0.717,-1.205 -0.717,-2.043c0,-0.901 0.243,-1.62 0.73,-2.157c0.487,-0.536 1.15,-0.804 1.989,-0.804c0.773,0 1.396,0.26 1.869,0.781c0.472,0.521 0.708,1.202 0.708,2.043c0,0.914 -0.242,1.637 -0.726,2.168c-0.484,0.531 -1.133,0.797 -1.945,0.797Zm0.047,-5.196c-0.589,0 -1.067,0.213 -1.434,0.637c-0.367,0.425 -0.551,0.982 -0.551,1.672c0,0.69 0.179,1.245 0.537,1.666c0.359,0.421 0.825,0.631 1.401,0.631c0.614,0 1.099,-0.201 1.453,-0.602c0.354,-0.401 0.531,-0.962 0.531,-1.683c0,-0.74 -0.172,-1.311 -0.516,-1.715c-0.343,-0.404 -0.817,-0.606 -1.421,-0.606Z" style="fill-rule:nonzero;"/>
        <path d="M53.366,33.918l-1.617,0l0,5.008l-0.656,0l0,-5.008l-1.614,0l0,-0.594l3.887,0l0,0.594Z" style="fill-rule:nonzero;"/>
        <path d="M58.935,39.02c-0.794,0 -1.43,-0.262 -1.908,-0.785c-0.478,-0.524 -0.717,-1.205 -0.717,-2.043c0,-0.901 0.244,-1.62 0.731,-2.157c0.487,-0.536 1.149,-0.804 1.988,-0.804c0.773,0 1.396,0.26 1.869,0.781c0.473,0.521 0.709,1.202 0.709,2.043c0,0.914 -0.242,1.637 -0.727,2.168c-0.484,0.531 -1.132,0.797 -1.945,0.797Zm0.047,-5.196c-0.588,0 -1.066,0.213 -1.433,0.637c-0.368,0.425 -0.551,0.982 -0.551,1.672c0,0.69 0.179,1.245 0.537,1.666c0.358,0.421 0.825,0.631 1.4,0.631c0.615,0 1.099,-0.201 1.453,-0.602c0.354,-0.401 0.531,-0.962 0.531,-1.683c0,-0.74 -0.171,-1.311 -0.515,-1.715c-0.344,-0.404 -0.818,-0.606 -1.422,-0.606Z" style="fill-rule:nonzero;"/>
        <path d="M68.414,33.934l-2.246,0l0,4.992l-0.66,0l0,-5.602l2.906,0l0,0.61Z" style="fill-rule:nonzero;"/>
        <path d="M74.147,39.02c-0.794,0 -1.43,-0.262 -1.908,-0.785c-0.477,-0.524 -0.716,-1.205 -0.716,-2.043c0,-0.901 0.243,-1.62 0.73,-2.157c0.487,-0.536 1.15,-0.804 1.988,-0.804c0.774,0 1.397,0.26 1.869,0.781c0.473,0.521 0.709,1.202 0.709,2.043c0,0.914 -0.242,1.637 -0.726,2.168c-0.485,0.531 -1.133,0.797 -1.946,0.797Zm0.047,-5.196c-0.588,0 -1.066,0.213 -1.433,0.637c-0.367,0.425 -0.551,0.982 -0.551,1.672c0,0.69 0.179,1.245 0.537,1.666c0.358,0.421 0.825,0.631 1.4,0.631c0.615,0 1.099,-0.201 1.454,-0.602c0.354,-0.401 0.531,-0.962 0.531,-1.683c0,-0.74 -0.172,-1.311 -0.516,-1.715c-0.344,-0.404 -0.818,-0.606 -1.422,-0.606Z" style="fill-rule:nonzero;"/>
        <path d="M89.61,38.926l-0.914,0l-2.164,-2.562c-0.081,-0.097 -0.13,-0.162 -0.149,-0.196l-0.015,0l0,2.758l-0.656,0l0,-5.602l0.656,0l0,2.633l0.015,0c0.037,-0.057 0.086,-0.121 0.149,-0.191l2.094,-2.442l0.816,0l-2.402,2.688l2.57,2.914Z" style="fill-rule:nonzero;"/>
        <path d="M95.05,39.02c-0.794,0 -1.43,-0.262 -1.908,-0.785c-0.478,-0.524 -0.717,-1.205 -0.717,-2.043c0,-0.901 0.244,-1.62 0.731,-2.157c0.487,-0.536 1.149,-0.804 1.988,-0.804c0.773,0 1.396,0.26 1.869,0.781c0.473,0.521 0.709,1.202 0.709,2.043c0,0.914 -0.242,1.637 -0.727,2.168c-0.484,0.531 -1.132,0.797 -1.945,0.797Zm0.047,-5.196c-0.589,0 -1.066,0.213 -1.434,0.637c-0.367,0.425 -0.55,0.982 -0.55,1.672c0,0.69 0.179,1.245 0.537,1.666c0.358,0.421 0.825,0.631 1.4,0.631c0.615,0 1.099,-0.201 1.453,-0.602c0.354,-0.401 0.531,-0.962 0.531,-1.683c0,-0.74 -0.171,-1.311 -0.515,-1.715c-0.344,-0.404 -0.818,-0.606 -1.422,-0.606Z" style="fill-rule:nonzero;"/>
        <path d="M105.49,38.926l-0.656,0l0,-5.008l-1.555,0c-0.179,1.412 -0.321,2.409 -0.425,2.992c-0.105,0.584 -0.21,1.013 -0.317,1.289c-0.107,0.276 -0.251,0.482 -0.433,0.616c-0.183,0.134 -0.401,0.201 -0.657,0.201c-0.205,0 -0.384,-0.027 -0.535,-0.082l0,-0.617c0.133,0.075 0.28,0.113 0.442,0.113c0.161,0 0.313,-0.096 0.455,-0.289c0.142,-0.193 0.286,-0.694 0.433,-1.504c0.147,-0.81 0.311,-1.914 0.49,-3.313l2.758,0l0,5.602Z" style="fill-rule:nonzero;"/>
        <path d="M109.766,38.926l0,-5.602l0.657,0l0,2.375l1.062,0c0.557,0 0.991,0.135 1.301,0.405c0.31,0.269 0.465,0.653 0.465,1.15c0,0.516 -0.163,0.923 -0.489,1.223c-0.325,0.299 -0.769,0.449 -1.332,0.449l-1.664,0Zm0.657,-2.633l0,2.039l0.921,0c0.388,0 0.688,-0.091 0.899,-0.273c0.211,-0.182 0.316,-0.438 0.316,-0.766c0,-0.666 -0.405,-1 -1.215,-1l-0.921,0Z" style="fill-rule:nonzero;"/>
        <path d="M122.136,40.43l-0.605,0l0,-1.504l-4.356,0l0,-5.602l0.657,0l0,5.008l2.898,0l0,-5.008l0.656,0l0,5.008l0.75,0l0,2.098Z" style="fill-rule:nonzero;"/>
        <path d="M130.248,38.926l-0.727,0l-0.593,-1.57l-2.375,0l-0.559,1.57l-0.73,0l2.148,-5.602l0.68,0l2.156,5.602Zm-1.535,-2.16l-0.879,-2.387c-0.029,-0.078 -0.057,-0.203 -0.086,-0.375l-0.016,0c-0.026,0.159 -0.055,0.284 -0.089,0.375l-0.871,2.387l1.941,0Z" style="fill-rule:nonzero;"/>
    </g>
    <g id="бренды2" serif:id="бренды">
        <path d="M42.303,5.695l-0.664,0l0,-4.992l-2.925,0l0,4.992l-0.66,0l0,-5.601l4.249,0l0,5.601Z" style="fill-rule:nonzero;"/>
        <path d="M50.892,5.695l-0.727,0l-0.593,-1.57l-2.375,0l-0.559,1.57l-0.73,0l2.148,-5.601l0.68,0l2.156,5.601Zm-1.535,-2.16l-0.879,-2.387c-0.029,-0.078 -0.057,-0.203 -0.086,-0.375l-0.016,0c-0.026,0.159 -0.056,0.284 -0.089,0.375l-0.871,2.387l1.941,0Z" style="fill-rule:nonzero;"/>
        <path d="M55.172,3.578l0,2.117l-0.656,0l0,-5.601l1.539,0c0.599,0 1.063,0.146 1.392,0.437c0.33,0.292 0.494,0.703 0.494,1.235c0,0.531 -0.182,0.966 -0.548,1.304c-0.366,0.339 -0.86,0.508 -1.483,0.508l-0.738,0Zm0,-2.89l0,2.296l0.688,0c0.453,0 0.798,-0.103 1.037,-0.31c0.238,-0.207 0.357,-0.5 0.357,-0.877c0,-0.74 -0.437,-1.109 -1.312,-1.109l-0.77,0Z" style="fill-rule:nonzero;"/>
        <path d="M65.694,5.695l-0.914,0l-2.164,-2.562c-0.081,-0.097 -0.13,-0.162 -0.148,-0.196l-0.016,0l0,2.758l-0.656,0l0,-5.601l0.656,0l0,2.633l0.016,0c0.036,-0.058 0.086,-0.122 0.148,-0.192l2.094,-2.441l0.816,0l-2.402,2.687l2.57,2.914Z" style="fill-rule:nonzero;"/>
        <rect x="69.064" y="3.215" width="2.133" height="0.504" style="fill-rule:nonzero;"/>
        <path d="M77.493,5.789c-0.795,0 -1.431,-0.262 -1.908,-0.785c-0.478,-0.524 -0.717,-1.205 -0.717,-2.043c0,-0.901 0.243,-1.62 0.73,-2.156c0.487,-0.537 1.15,-0.805 1.988,-0.805c0.774,0 1.397,0.26 1.869,0.781c0.473,0.521 0.709,1.202 0.709,2.043c0,0.914 -0.242,1.637 -0.726,2.168c-0.485,0.531 -1.133,0.797 -1.945,0.797Zm0.046,-5.195c-0.588,0 -1.066,0.212 -1.433,0.636c-0.367,0.425 -0.551,0.982 -0.551,1.672c0,0.69 0.179,1.246 0.537,1.666c0.358,0.421 0.825,0.631 1.401,0.631c0.614,0 1.098,-0.2 1.453,-0.601c0.354,-0.401 0.531,-0.963 0.531,-1.684c0,-0.74 -0.172,-1.311 -0.516,-1.715c-0.343,-0.403 -0.817,-0.605 -1.422,-0.605Z" style="fill-rule:nonzero;"/>
        <path d="M87.011,0.688l-1.617,0l0,5.007l-0.657,0l0,-5.007l-1.613,0l0,-0.594l3.887,0l0,0.594Z" style="fill-rule:nonzero;"/>
        <path d="M93.658,5.695l-2.969,0l0,-5.601l2.844,0l0,0.594l-2.187,0l0,1.863l2.023,0l0,0.59l-2.023,0l0,1.961l2.312,0l0,0.593Z" style="fill-rule:nonzero;"/>
        <path d="M101.715,5.695l-0.656,0l0,-5.007l-1.554,0c-0.18,1.411 -0.322,2.408 -0.426,2.992c-0.104,0.583 -0.21,1.013 -0.317,1.289c-0.106,0.276 -0.251,0.481 -0.433,0.615c-0.182,0.134 -0.401,0.201 -0.656,0.201c-0.206,0 -0.384,-0.027 -0.536,-0.082l0,-0.617c0.133,0.075 0.28,0.113 0.442,0.113c0.161,0 0.313,-0.096 0.455,-0.289c0.142,-0.193 0.286,-0.694 0.433,-1.504c0.148,-0.81 0.311,-1.914 0.491,-3.312l2.757,0l0,5.601Z" style="fill-rule:nonzero;"/>
        <path d="M105.992,5.695l0,-5.601l0.656,0l0,2.375l1.062,0c0.558,0 0.991,0.135 1.301,0.404c0.31,0.27 0.465,0.653 0.465,1.15c0,0.516 -0.163,0.924 -0.488,1.223c-0.326,0.3 -0.77,0.449 -1.332,0.449l-1.664,0Zm0.656,-2.633l0,2.04l0.922,0c0.388,0 0.687,-0.092 0.898,-0.274c0.211,-0.182 0.316,-0.437 0.316,-0.766c0,-0.666 -0.404,-1 -1.214,-1l-0.922,0Z" style="fill-rule:nonzero;"/>
    </g>
</svg>
