<svg width="890" height="131" viewBox="0 0 890 131" version="1.1" xmlns="http://www.w3.org/2000/svg" xmlns:xlink="http://www.w3.org/1999/xlink" xml:space="preserve" xmlns:serif="http://www.serif.com/" style="fill-rule:evenodd;clip-rule:evenodd;stroke-linejoin:round;stroke-miterlimit:1.41421;">
    <path d="M60.82,97.897l0,-38.212c-1.074,0 -2.076,0.117 -3.004,0.353c-0.928,0.235 -1.869,0.741 -2.821,1.518c-0.953,0.777 -1.979,1.931 -3.078,3.461c-1.099,1.531 -2.333,3.567 -3.7,6.11l-14.29,26.77l-33.927,0l18.026,-29.807c2.394,-3.908 4.58,-7.122 6.559,-9.641c1.978,-2.52 3.871,-4.556 5.679,-6.11c1.807,-1.554 3.602,-2.708 5.385,-3.461c1.784,-0.754 3.652,-1.295 5.606,-1.625c-1.954,-0.424 -3.737,-0.965 -5.349,-1.624c-1.612,-0.66 -3.139,-1.542 -4.58,-2.649c-1.441,-1.107 -2.846,-2.472 -4.213,-4.097c-1.368,-1.624 -2.785,-3.614 -4.25,-5.968c-1.417,-2.213 -2.626,-3.967 -3.628,-5.262c-1.001,-1.295 -2.027,-2.272 -3.077,-2.932c-1.051,-0.659 -2.248,-1.094 -3.591,-1.306c-1.343,-0.212 -3.065,-0.318 -5.166,-0.318l0,-23.097c3.615,0 6.754,0.059 9.416,0.177c2.663,0.117 5.032,0.4 7.108,0.847c2.076,0.448 3.945,1.119 5.606,2.013c1.661,0.895 3.297,2.107 4.909,3.638c1.612,1.53 3.273,3.449 4.983,5.756c1.71,2.308 3.64,5.086 5.789,8.335c2.052,3.155 3.786,5.721 5.203,7.699c1.417,1.978 2.687,3.52 3.81,4.626c1.124,1.107 2.199,1.86 3.224,2.261c1.026,0.4 2.15,0.6 3.371,0.6l0,-35.952l29.384,0l0,35.952c1.271,0 2.406,-0.2 3.408,-0.6c1.001,-0.401 2.064,-1.154 3.187,-2.261c1.124,-1.106 2.394,-2.648 3.811,-4.626c1.417,-1.978 3.151,-4.544 5.203,-7.699c2.149,-3.296 4.066,-6.086 5.752,-8.37c1.685,-2.284 3.334,-4.191 4.946,-5.721c1.612,-1.531 3.261,-2.743 4.946,-3.638c1.686,-0.894 3.566,-1.565 5.643,-2.013c2.076,-0.447 4.457,-0.73 7.144,-0.847c2.687,-0.118 5.814,-0.177 9.38,-0.177l0,23.097c-2.15,0 -3.896,0.106 -5.24,0.318c-1.343,0.212 -2.528,0.647 -3.554,1.306c-1.025,0.66 -2.039,1.637 -3.041,2.932c-1.001,1.295 -2.21,3.049 -3.627,5.262c-1.514,2.354 -2.955,4.344 -4.323,5.968c-1.368,1.625 -2.76,2.99 -4.177,4.097c-1.417,1.107 -2.931,1.989 -4.543,2.649c-1.612,0.659 -3.42,1.2 -5.423,1.624c2.003,0.33 3.896,0.871 5.679,1.625c1.783,0.753 3.579,1.907 5.386,3.461c1.808,1.554 3.701,3.59 5.679,6.11c1.979,2.519 4.165,5.733 6.558,9.641l18.027,29.807l-33.928,0l-14.289,-26.77c-1.416,-2.543 -2.674,-4.579 -3.774,-6.11c-1.099,-1.53 -2.125,-2.684 -3.077,-3.461c-0.953,-0.777 -1.881,-1.283 -2.785,-1.518c-0.904,-0.236 -1.893,-0.353 -2.968,-0.353l0,38.212l-29.384,0Z" style="fill:#262626;fill-rule:nonzero;"/>
    <path d="M229.182,68.09l-52.539,0c0.488,2.26 1.392,4.297 2.711,6.11c1.319,1.812 2.931,3.378 4.836,4.697c1.905,1.318 4.03,2.331 6.375,3.037c2.345,0.706 4.763,1.059 7.255,1.059c5.031,0 10.014,-0.671 14.948,-2.013c4.934,-1.342 9.771,-3.072 14.509,-5.191l0,15.751c-0.977,0.518 -2.418,1.201 -4.323,2.048c-1.905,0.848 -4.311,1.684 -7.218,2.508c-2.907,0.824 -6.314,1.542 -10.222,2.154c-3.908,0.612 -8.329,0.918 -13.263,0.918c-7.133,0 -13.374,-0.977 -18.723,-2.931c-5.349,-1.954 -9.795,-4.626 -13.336,-8.017c-3.542,-3.39 -6.204,-7.369 -7.987,-11.937c-1.784,-4.567 -2.675,-9.465 -2.675,-14.691c0,-5.227 0.891,-10.077 2.675,-14.551c1.783,-4.473 4.445,-8.37 7.987,-11.689c3.541,-3.32 7.987,-5.922 13.336,-7.805c5.349,-1.884 11.59,-2.826 18.723,-2.826c4.201,0 8.475,0.636 12.823,1.908c4.348,1.271 8.317,3.402 11.908,6.392c3.59,2.99 6.521,6.934 8.793,11.831c2.272,4.897 3.407,10.948 3.407,18.152l0,5.086Zm-24.767,-12.573c0,-2.26 -0.306,-4.332 -0.916,-6.215c-0.611,-1.884 -1.503,-3.485 -2.675,-4.803c-1.172,-1.319 -2.614,-2.343 -4.323,-3.073c-1.71,-0.73 -3.664,-1.095 -5.862,-1.095c-2.15,0 -4.128,0.365 -5.936,1.095c-1.807,0.73 -3.359,1.754 -4.653,3.073c-1.295,1.318 -2.308,2.919 -3.041,4.803c-0.733,1.883 -1.099,3.955 -1.099,6.215l28.505,0Z" style="fill:#262626;fill-rule:nonzero;"/>
    <path d="M284.771,61.45l24.108,-35.457l20.737,0l6.449,71.904l-25.208,0l-3.297,-33.833l-22.789,33.833l-22.863,-33.833l-3.297,33.833l-25.208,0l6.449,-71.904l20.737,0l24.182,35.457Z" style="fill:#262626;fill-rule:nonzero;"/>
    <path d="M395.024,97.897l0,-24.722c-2.638,2.119 -5.813,3.85 -9.526,5.192c-3.713,1.342 -8.354,2.013 -13.923,2.013c-5.08,0 -9.489,-0.553 -13.226,-1.66c-3.738,-1.107 -6.84,-2.849 -9.307,-5.227c-2.467,-2.378 -4.299,-5.391 -5.496,-9.041c-1.196,-3.649 -1.795,-8.017 -1.795,-13.102l0,-25.357l26.38,0l0,18.506c0,3.06 0.195,5.627 0.586,7.699c0.391,2.071 1.063,3.743 2.015,5.014c0.953,1.272 2.223,2.178 3.811,2.72c1.587,0.541 3.554,0.812 5.899,0.812c1.563,0 3.09,-0.2 4.579,-0.6c1.49,-0.401 2.883,-0.93 4.177,-1.59c1.295,-0.659 2.443,-1.4 3.444,-2.224c1.002,-0.825 1.796,-1.684 2.382,-2.579l0,-27.758l26.38,0l0,71.904l-26.38,0Z" style="fill:#262626;fill-rule:nonzero;"/>
    <path d="M452.664,25.993l15.168,35.74l17.22,-35.74l25.648,0l-50.708,104.607l-26.673,0l20.517,-42.097l-29.531,-62.51l28.359,0Z" style="fill:#262626;fill-rule:nonzero;"/>
    <path d="M555.003,68.796c-1.075,0 -2.076,0.153 -3.004,0.459c-0.928,0.306 -1.832,0.848 -2.712,1.625c-0.879,0.777 -1.758,1.836 -2.638,3.178c-0.879,1.342 -1.856,3.073 -2.931,5.192l-9.746,18.647l-29.384,0l15.901,-26.911c1.173,-2.072 2.284,-3.791 3.335,-5.156c1.05,-1.366 2.137,-2.473 3.26,-3.32c1.124,-0.848 2.321,-1.495 3.591,-1.943c1.27,-0.447 2.711,-0.788 4.323,-1.024c-1.319,-0.047 -2.613,-0.294 -3.883,-0.741c-1.27,-0.448 -2.443,-1.001 -3.518,-1.66c-1.074,-0.659 -2.027,-1.401 -2.857,-2.225c-0.831,-0.824 -1.49,-1.636 -1.979,-2.437l-1.539,-2.613c-0.586,-1.083 -1.136,-1.943 -1.649,-2.578c-0.512,-0.636 -1.062,-1.131 -1.648,-1.484c-0.587,-0.353 -1.258,-0.588 -2.015,-0.706c-0.758,-0.118 -1.698,-0.177 -2.822,-0.177l-3.151,0l0,-18.929l8.134,0c4.25,0 7.694,0.235 10.332,0.706c2.638,0.471 4.788,1.177 6.449,2.119c1.661,0.942 2.992,2.107 3.993,3.496c1.002,1.39 1.991,3.002 2.968,4.839l2.858,5.509c0.977,1.884 1.869,3.461 2.675,4.732c0.806,1.272 1.612,2.284 2.418,3.038c0.806,0.753 1.624,1.283 2.455,1.589c0.83,0.306 1.758,0.459 2.784,0.459l0,-26.487l25.208,0l0,26.346c1.025,0 1.954,-0.141 2.784,-0.424c0.831,-0.283 1.649,-0.801 2.455,-1.554c0.806,-0.753 1.612,-1.754 2.418,-3.002c0.806,-1.248 1.698,-2.813 2.675,-4.697l2.857,-5.509c0.929,-1.837 1.893,-3.449 2.895,-4.839c1.001,-1.389 2.333,-2.554 3.994,-3.496c1.66,-0.942 3.822,-1.648 6.485,-2.119c2.662,-0.471 6.118,-0.706 10.368,-0.706l8.061,0l0,18.929l-3.151,0c-1.075,0 -1.991,0.059 -2.748,0.177c-0.757,0.118 -1.429,0.353 -2.015,0.706c-0.586,0.353 -1.136,0.848 -1.649,1.484c-0.513,0.635 -1.062,1.495 -1.649,2.578l-1.538,2.613c-0.489,0.801 -1.148,1.613 -1.979,2.437c-0.83,0.824 -1.783,1.566 -2.858,2.225c-1.074,0.659 -2.247,1.212 -3.517,1.66c-1.27,0.447 -2.589,0.694 -3.957,0.741c1.612,0.236 3.053,0.577 4.323,1.024c1.27,0.448 2.455,1.095 3.554,1.943c1.099,0.847 2.186,1.954 3.261,3.32c1.075,1.365 2.223,3.084 3.444,5.156l15.901,26.911l-29.384,0l-9.746,-18.647c-1.123,-2.119 -2.125,-3.85 -3.004,-5.192c-0.879,-1.342 -1.747,-2.401 -2.601,-3.178c-0.855,-0.777 -1.735,-1.319 -2.638,-1.625c-0.904,-0.306 -1.918,-0.459 -3.041,-0.459l0,29.101l-25.208,0l0,-29.101Z" style="fill:#262626;fill-rule:nonzero;"/>
    <path d="M659.467,25.993l0,35.599l31.949,-35.599l22.057,0l0,71.904l-25.647,0l0,-36.729l-32.242,36.729l-21.764,0l0,-71.904l25.647,0Z" style="fill:#262626;fill-rule:nonzero;"/>
    <path d="M776.096,50.432l0,-24.439l26.38,0l0,71.904l-26.38,0l0,-27.759l-26.893,0l0,27.759l-26.38,0l0,-71.904l26.38,0l0,24.439l26.893,0Z" style="fill:#262626;fill-rule:nonzero;"/>
    <path d="M811.166,34.539c5.032,-3.39 10.54,-5.874 16.524,-7.451c5.985,-1.578 12.201,-2.367 18.649,-2.367c5.569,0 10.394,0.542 14.473,1.625c4.079,1.083 7.45,2.613 10.112,4.591c2.662,1.978 4.653,4.356 5.972,7.134c1.319,2.778 1.979,5.886 1.979,9.323l0,27.759c0,2.543 0.244,4.485 0.732,5.827c0.489,1.342 1.441,2.013 2.858,2.013c0.635,0 1.283,-0.082 1.942,-0.247c0.659,-0.165 1.295,-0.353 1.905,-0.565c0.611,-0.212 1.16,-0.435 1.649,-0.671c0.488,-0.235 0.904,-0.424 1.246,-0.565l0,13.35c-1.319,0.518 -2.736,1.059 -4.25,1.624c-1.515,0.565 -3.188,1.095 -5.02,1.589c-1.832,0.495 -3.847,0.895 -6.045,1.201c-2.199,0.306 -4.592,0.459 -7.181,0.459c-2.492,0 -4.519,-0.271 -6.083,-0.812c-1.563,-0.542 -2.808,-1.213 -3.737,-2.013c-0.928,-0.801 -1.6,-1.636 -2.015,-2.508c-0.415,-0.871 -0.72,-1.636 -0.916,-2.295c-1.026,0.8 -2.198,1.648 -3.517,2.543c-1.319,0.894 -2.895,1.718 -4.726,2.472c-1.832,0.753 -3.957,1.377 -6.376,1.872c-2.418,0.494 -5.239,0.741 -8.463,0.741c-4.397,0 -8.024,-0.577 -10.882,-1.73c-2.858,-1.154 -5.129,-2.614 -6.815,-4.38c-1.685,-1.765 -2.857,-3.708 -3.517,-5.827c-0.659,-2.119 -0.989,-4.167 -0.989,-6.145c0,-3.484 0.72,-6.463 2.161,-8.935c1.442,-2.472 3.42,-4.603 5.936,-6.392c2.516,-1.789 5.508,-3.343 8.976,-4.662c3.469,-1.318 7.23,-2.59 11.285,-3.814c2.834,-0.895 5.105,-1.601 6.815,-2.119c1.71,-0.518 3.078,-0.942 4.103,-1.271c1.026,-0.33 1.857,-0.624 2.492,-0.883c0.635,-0.259 1.319,-0.577 2.052,-0.954c0,-1.365 -0.11,-2.707 -0.33,-4.026c-0.22,-1.318 -0.721,-2.507 -1.502,-3.567c-0.782,-1.059 -1.954,-1.919 -3.518,-2.578c-1.563,-0.659 -3.688,-0.989 -6.375,-0.989c-3.175,0 -6.192,0.389 -9.049,1.166c-2.858,0.777 -5.533,1.789 -8.024,3.037c-2.492,1.248 -4.788,2.649 -6.888,4.203c-2.101,1.553 -3.982,3.131 -5.643,4.732l0,-19.495Zm41.329,28.96c-2.589,1.036 -4.983,2.036 -7.181,3.002c-2.199,0.965 -4.104,1.989 -5.716,3.072c-1.612,1.083 -2.87,2.307 -3.774,3.673c-0.904,1.366 -1.356,2.967 -1.356,4.803c0,1.319 0.208,2.449 0.623,3.39c0.416,0.942 0.965,1.707 1.649,2.296c0.684,0.589 1.453,1.024 2.308,1.307c0.855,0.282 1.722,0.423 2.602,0.423c1.074,0 2.149,-0.188 3.224,-0.565c1.075,-0.376 2.088,-0.824 3.041,-1.342c0.952,-0.518 1.832,-1.059 2.638,-1.624c0.806,-0.565 1.453,-1.036 1.942,-1.413l0,-17.022Z" style="fill:#262626;fill-rule:nonzero;"/>
</svg>
